<svg width="917" height="254" viewBox="0 0 917 254" fill="none" xmlns="http://www.w3.org/2000/svg">
<path d="M6.77847 111.2C4.80142 110.069 3.1068 108.231 2.47132 105.403C2.11827 104.484 2.11827 103.424 2.11827 102.364V101.233C1.97705 95.365 1.90645 89.7096 1.69462 83.7714L0.564873 66.593C0.353045 64.1187 0.353045 60.7254 0.353045 58.1805C0.353045 57.1908 0.211827 56.0597 0.211827 55.07V51.9595C0.141218 48.1421 0 42.5573 0 39.0227C0 37.2554 0 35.1346 0.141218 33.3672V30.893C0.141218 30.1154 0.282436 29.1964 0.282436 28.348V24.8841C0.282436 24.3185 0.141218 23.753 0.141218 23.1874V21.4201C0 19.0873 0 15.3405 0 13.2197C0 12.23 0.211827 11.0282 0.353045 10.2506C0.917918 5.86766 3.45984 3.53479 7.55517 2.68647C7.90822 2.68647 8.33187 2.54509 8.68492 2.54509C9.24979 2.4037 10.0971 2.33301 10.662 2.33301H18.429C20.9003 2.33301 22.8773 2.75717 24.9956 3.11063C25.4193 3.11063 25.9841 3.32271 26.4078 3.32271C29.9382 4.24172 32.4802 5.86766 34.1748 8.90746L37.7052 12.3714C38.835 13.5025 39.6823 14.8457 40.3884 16.4716L41.5887 20.1476L42.0124 21.8443H42.1536C42.3654 22.834 42.5773 23.753 42.9303 24.6013C42.9303 22.834 42.7891 20.9253 42.7891 19.0166C42.7891 19.0166 42.7891 18.8752 42.6479 18.451C42.4361 16.4716 42.6479 14.3508 43.0715 11.6645C44.0601 7.98845 46.7432 5.09004 51.0504 4.66588C53.3805 4.4538 56.1342 4.4538 59.1704 5.09004C62.489 6.00904 64.8191 7.56429 66.0195 9.96785L69.903 13.7146C71.3152 15.1284 72.2331 17.1785 72.4449 19.5821C72.6567 21.1374 72.798 23.1168 72.8686 24.4599L73.7865 36.9019V39.0227C73.7865 39.6589 73.9277 40.1538 73.9277 40.79C74.1395 45.6678 74.2807 51.2526 74.3514 56.1304C74.5632 61.1496 74.7044 66.805 74.775 71.8949L75.1281 77.6918C75.3399 80.5902 75.4811 83.9128 75.5517 86.8112C75.5517 89.9217 75.6929 93.1735 75.6929 96.284C75.6929 99.3945 75.5517 102.505 75.5517 105.616C75.5517 107.029 75.3399 108.585 74.6338 110.281C73.2922 113.957 70.3972 115.725 66.655 115.937C65.4546 115.937 63.1951 115.937 61.8535 115.795H58.5349C57.3346 115.795 56.0636 115.654 54.8633 115.654L52.3919 115.442C49.9206 115.3 47.9436 114.311 46.3196 112.685L42.5773 108.938C41.0239 108.019 39.6823 106.747 38.6938 105.05C38.4819 104.838 38.2701 104.484 38.1289 104.131V103.919C37.7759 103.283 37.564 102.717 37.3522 101.939C35.587 95.9306 33.6805 90.1337 31.5623 84.2662L31.7741 89.3561C31.7741 93.2442 31.9153 97.1323 32.1271 101.02L32.339 105.262C32.339 106.605 32.339 107.948 31.9859 109.928C31.2092 114.452 28.5261 117.28 23.8659 117.563C21.677 117.775 19.2057 117.987 16.0989 117.563L16.2401 117.704C14.1218 117.492 12.1448 116.714 10.5914 115.159L6.77847 111.2ZM47.5199 64.3308L44.4837 56.6959C43.0715 52.3837 41.5887 47.93 40.0353 43.4763C39.1174 40.7193 37.9171 38.033 37.0698 35.1346C35.1633 29.3377 33.3981 23.6116 31.6329 17.8148C31.068 16.1181 30.6443 14.4922 29.9382 12.7956C29.0203 10.6041 27.4669 9.33162 25.1368 8.76607C22.9479 8.34191 20.6885 7.84706 18.3584 7.84706H10.5914C9.95588 7.84706 9.24979 7.98845 8.61431 8.05914C7.06091 8.41261 6.07238 9.26092 5.86055 10.9576C5.71934 11.7352 5.50751 12.5128 5.50751 13.149C5.50751 15.8354 5.50751 18.451 5.64873 21.1374C5.64873 23.6116 5.78994 25.9445 5.78994 28.2773C5.78994 31.812 5.57812 35.4173 5.57812 38.952C5.57812 45.3144 5.78994 51.7474 5.93116 58.0391C5.93116 60.7254 5.93116 63.3411 6.14299 66.0274L7.27273 83.4886C7.48456 89.3561 7.62578 95.1529 7.69639 101.02C7.83761 101.798 7.69639 102.717 7.83761 103.495C8.26126 105.686 9.81466 106.747 11.5799 106.959C13.7688 107.312 15.887 107.1 18.0053 106.817C19.9824 106.676 21.2533 105.474 21.5358 103.495C21.7476 102.152 21.7476 100.95 21.7476 99.748C21.5358 94.446 21.1827 89.2147 21.1827 83.9834C20.9709 77.1969 20.9709 70.5518 20.9709 63.7652C20.9709 63.3411 20.9709 62.8462 20.8297 62.4221C20.4766 57.9684 20.4766 53.4441 20.6179 48.849C20.6179 47.5058 20.9709 46.092 21.1827 44.7488C21.1827 44.3247 21.3945 43.8298 22.1006 43.8298C22.7361 44.254 23.0186 44.9609 23.301 45.5971L24.5014 48.7076L27.3963 56.1304C29.1615 60.0185 30.6443 64.1187 31.9153 68.1482C32.339 69.7035 32.9038 71.2587 33.4687 72.8139C36.7873 81.9333 40.106 90.9114 42.7891 100.243C43.0009 101.02 43.4246 101.798 43.7776 102.434C44.5543 103.777 45.6841 104.555 47.2375 104.626L49.4264 104.838C51.8977 104.838 54.4396 104.979 56.8403 104.979C58.2525 105.121 59.7353 105.121 61.0769 105.121C62.7715 104.979 63.9718 104.202 64.3955 102.576C64.7485 101.798 64.8191 100.879 64.8191 100.031C64.9604 93.8098 64.9604 87.5888 64.8191 81.3678C64.6779 76.49 64.2543 71.6122 64.0424 66.7343C63.9012 61.4324 63.8306 56.2011 63.6188 50.8284C63.4776 45.7385 63.4069 40.5779 63.1951 35.488C63.1951 34.1449 63.0539 32.8017 63.0539 31.4585L62.136 19.2286C61.9948 17.8148 61.9242 16.3302 61.7123 14.775C61.5005 12.4421 60.3002 11.0282 57.8288 10.3213C55.7106 9.89716 53.7335 9.89716 51.6152 10.1092C49.9206 10.2506 48.8615 11.4524 48.3672 13.0077C48.1554 14.4215 48.0142 15.7647 48.1554 17.2492C48.2966 17.6734 48.2966 18.2389 48.2966 18.8045C48.5084 26.7928 48.4378 34.7811 48.8615 42.8401C49.0733 46.092 49.0733 49.2732 49.2145 52.525C49.2145 56.0597 49.3557 59.665 49.3557 63.1997C49.3557 64.1187 49.3557 64.967 48.7203 65.7446C47.9436 65.6739 47.7317 65.0377 47.5199 64.3308Z" fill="white"/>
<path d="M77.5992 107.312C75.4809 105.898 74.2805 103.566 73.8569 100.314C73.7157 99.3946 73.7157 97.9808 73.7157 96.8497V91.9012C73.7157 87.8717 73.7157 83.9836 73.5744 80.0954C73.5744 77.197 73.3626 74.44 73.1508 71.5416V70.976L72.939 66.1689C72.939 65.2499 72.7977 64.1895 72.7271 62.6343C72.7271 62.0687 72.5859 61.5032 72.5859 60.9376C72.4447 59.3824 72.3741 57.1909 72.4447 55.4943C72.4447 50.0509 72.7977 44.4662 73.0802 39.1642L73.7157 25.379C73.8569 23.0462 73.9275 20.8547 73.9275 18.5218V16.5424C73.9275 15.9062 74.0687 15.1286 74.0687 14.2095C74.2099 13.0078 74.2805 11.7353 74.6336 10.5335C75.7633 6.22124 78.6583 3.32282 83.0361 2.19174C84.2364 1.83827 85.931 1.76758 87.4844 1.76758C88.826 1.76758 90.2382 1.90896 91.3679 1.97966C94.6865 2.40382 97.1579 3.95906 98.4994 6.43332L102.524 10.3214C103.936 11.7353 104.854 13.8561 105.066 16.401C105.066 17.1787 105.066 17.7442 105.207 18.3097V22.3392C105.207 24.8842 105.349 27.2171 105.349 29.5499V35.9123C105.349 39.2349 105.207 42.6988 105.207 46.0214C105.066 49.344 105.066 52.5959 105.066 55.9184C105.066 58.6755 105.207 61.5032 105.278 64.3309C105.278 65.7448 105.419 67.3 105.419 68.7846C105.419 72.0364 105.419 75.0055 105.631 78.2574C105.843 81.0145 105.984 83.8422 105.843 86.6699L105.419 99.7481C105.278 101.445 105.207 103.071 105.207 104.838C104.784 111.837 101.677 114.735 94.6866 114.947H90.9443C89.6027 114.947 88.6142 114.735 87.4138 114.382C85.2249 113.816 83.3891 113.038 82.1887 111.837L77.5992 107.312ZM94.4747 13.2198C94.3335 12.6543 94.3335 12.0888 94.3335 11.4525C94.1217 9.26104 92.9919 7.77648 90.8737 7.56441C88.6848 7.21094 86.4253 7.21094 84.2364 7.70579C81.9063 8.12995 80.706 9.6145 80.1411 11.806C79.9293 12.7957 79.788 13.9268 79.7174 15.0579C79.5762 18.5925 79.5762 22.1979 79.3644 25.7325L78.7289 39.5177C78.3759 44.961 78.0934 50.4044 78.0934 55.8477C77.9522 59.3117 78.4465 62.8463 78.5171 66.3103C78.7289 70.8347 79.1526 75.4297 79.1526 80.0954C79.3644 85.3267 79.2938 90.6287 79.2938 96.0014C79.2938 97.3445 79.1526 98.5463 79.435 99.7481C79.6468 102.293 80.7766 103.424 83.1773 103.99C83.954 104.202 84.5895 104.343 85.3662 104.343H89.1084C92.6389 104.202 94.1923 102.788 94.4041 99.2532C94.4041 97.4859 94.5453 95.7893 94.6159 94.1633L95.0396 81.0851C95.1808 78.5402 95.0396 75.9952 94.8278 73.3089C94.6159 69.9863 94.6159 66.6638 94.6159 63.4119C94.4747 59.0996 94.2629 54.7166 94.2629 50.5458C94.2629 43.9006 94.4747 37.1848 94.4747 30.5396C94.4747 26.2274 94.3335 21.8444 94.3335 16.9666V13.2198H94.4747Z" fill="white"/>
<path d="M118.341 110.988C117.988 110.776 117.776 110.423 117.423 110.069L114.74 107.383C113.963 106.817 113.186 106.252 112.551 105.615C107.749 101.303 104.431 95.6477 103.23 88.9318C102.666 86.2455 102.242 82.9229 101.889 80.0245C101.748 78.6814 101.889 76.7726 102.101 75.7122C102.666 72.3897 105.207 69.2792 108.526 68.0774C111.068 67.0877 113.751 66.7342 116.081 66.7342L112.339 61.8564C111.139 60.3012 109.656 58.3925 108.456 56.6251C107.255 54.8578 105.772 52.1715 105.349 49.98C104.148 46.2333 103.23 41.4261 103.583 36.9725C103.583 36.8311 103.725 36.619 103.725 36.4069L104.148 33.1551L104.501 31.2463H104.36L104.784 28.2772C104.996 26.5099 105.208 24.5305 105.561 22.6925C105.561 22.339 105.772 22.0563 105.772 21.7028C106.408 17.3905 107.891 13.5024 110.009 10.2505C112.127 6.92795 114.881 4.24161 119.117 2.82775C123.213 1.48458 127.308 0.353495 132.321 0.494881C136.417 0.636267 140.512 1.83805 144.113 3.81745C146.584 5.23131 148.632 7.28141 150.327 9.61428L153.575 12.7248C155.764 14.9163 157.458 17.6026 158.588 20.3596C160 23.6822 160.353 27.2168 160.565 30.6101L160.777 34.4982C160.777 36.8311 160.777 39.164 160 41.921C159.082 44.8194 157.529 47.3643 154.563 48.7782H154.422C151.315 50.1921 148.208 51.2525 144.749 50.9697C144.184 50.9697 143.619 50.9697 143.195 50.8283L144.113 51.7473C145.313 52.9491 146.443 54.4337 147.573 56.0596L150.327 60.3012L154.069 66.098C155.411 68.0774 156.54 70.9758 157.529 73.6621C158.517 76.7726 159.506 79.8831 160 83.4178C160.212 84.973 160.353 87.1645 160.353 89.2146C160.353 92.7493 159.93 96.4253 158.588 99.96C156.823 104.979 153.787 109.291 149.691 112.967C145.949 116.219 141.712 117.492 137.052 117.633C129.991 117.916 123.495 115.654 118.341 110.988ZM149.691 25.4495C149.479 22.5511 149.126 19.582 147.997 16.7543C146.655 13.4317 144.537 10.5333 141.359 8.76596C138.464 7.06933 135.358 6.22102 132.039 6.07963C128.155 5.93824 124.484 6.99864 120.812 8.20042C118.129 9.11943 116.152 10.9574 114.74 13.2903C112.974 16.1887 111.774 19.2992 111.209 22.6218C110.644 25.5909 110.291 28.7014 109.868 31.8119C109.656 33.7206 109.232 35.5586 109.091 37.4673C108.667 41.2141 109.656 44.8194 110.644 48.3541C111.068 50.2628 111.986 51.8887 112.974 53.3733C114.175 55.1406 115.446 56.8372 116.646 58.3925C120.671 63.4824 124.413 68.7136 127.873 74.157C129.003 75.8536 129.85 77.621 130.556 79.459C130.98 81.0142 131.333 82.4281 131.192 83.9833C131.05 86.3162 130.062 88.2956 128.297 89.8509C127.308 90.7699 125.331 90.8406 124.06 89.4974C123.283 88.5784 122.719 87.5887 122.295 86.5283C121.165 83.2764 120.177 80.0952 119.965 76.6313C119.965 75.8536 119.824 74.9346 119.612 74.157C119.188 72.9552 118.411 72.1776 116.929 72.1776C114.74 72.0362 112.41 72.3897 110.291 73.3087C108.738 73.7328 107.82 75.0053 107.608 76.5606C107.396 77.4796 107.255 78.4693 107.396 79.459C107.749 82.216 108.032 85.0437 108.597 87.8008C109.585 93.2441 112.268 97.7685 116.223 101.445C120.459 105.191 125.543 107.029 131.192 106.888C134.722 106.746 137.829 105.757 140.653 103.424C144.113 100.455 146.443 96.7788 147.997 92.5372C149.691 88.0128 149.691 83.2057 149.126 78.54C148.773 75.2174 147.714 71.9655 146.655 68.855C146.02 66.9463 145.243 65.1083 144.113 63.4117L140.371 57.6148L137.617 53.3733C136.629 51.9594 135.499 50.6162 134.157 49.3438C132.463 47.7885 130.909 46.2333 129.497 44.5366C125.472 39.5174 124.484 33.862 125.825 27.7824C126.178 26.3685 126.814 25.0254 127.802 23.8943C129.568 21.9149 131.686 21.9149 133.451 24.1063C133.804 24.5305 134.087 25.0961 134.228 25.6616C134.581 26.5806 134.863 27.4289 135.146 28.3479C135.569 30.4687 135.711 32.6602 135.711 34.781C135.711 35.7 135.711 36.5483 135.922 37.4673C136.346 39.376 137.335 40.1537 139.382 40.1537C141.924 40.295 144.396 39.5174 146.726 38.3863C148.138 37.7501 148.915 36.4069 149.409 34.8517C149.974 32.8723 149.974 30.8222 149.974 28.8428L149.691 25.4495Z" fill="white"/>
<path d="M187.256 8.55384L187.679 9.11939C188.597 5.58474 191.422 3.11048 195.87 2.26217H202.507C203.708 2.26217 205.614 2.26217 206.814 2.40355C209.921 2.75702 212.463 4.38296 214.016 6.9279L217.759 10.6746C219.171 12.0885 220.23 14.2093 220.654 16.6835L221.219 23.3287V30.8928C221.219 33.3671 221.219 35.7707 221.36 38.2449C221.36 41.3554 221.36 44.4659 221.501 47.435C221.501 50.4041 221.642 53.5146 221.642 56.413L222.066 78.5399V80.8728L221.713 99.7478V105.969C221.572 106.534 221.572 107.1 221.077 108.867L221.219 109.009C220.301 112.26 218.253 114.452 214.581 115.23L214.723 115.371C214.158 115.583 213.522 115.795 212.392 115.795C210.627 115.937 207.732 115.937 206.179 115.795C204.837 115.795 203.637 115.583 202.295 115.159C201.095 114.735 199.965 114.028 199.047 113.179L194.952 109.079C193.187 107.948 191.633 106.181 190.927 103.777C190.574 102.646 190.504 101.303 190.362 99.7478V87.8714C190.504 83.3471 190.221 77.5502 189.939 72.6724C189.798 71.2585 189.727 68.9964 189.727 67.6532L189.515 63.1288L189.303 59.0993C189.091 59.2407 188.88 59.2407 188.668 59.2407V81.4383C188.809 84.4074 188.668 87.2352 188.527 89.9922C188.385 91.9716 188.385 93.4561 188.385 95.4355C188.527 98.4047 188.527 102.646 188.527 105.686C188.527 106.605 188.527 107.383 188.315 108.655C187.538 112.402 185.561 115.088 181.183 115.866C178.218 116.502 175.111 116.502 172.216 116.29C169.674 115.937 167.768 115.159 166.426 113.816L162.331 109.716C159.647 108.16 158.306 105.474 157.882 101.727V99.3944L157.459 77.1968V70.8344C157.459 70.4809 157.317 70.1982 157.317 69.7033V62.9168C157.317 62.5633 157.459 62.1391 157.459 61.715V55.1405C157.459 54.3629 157.6 53.5853 157.6 52.8077L157.812 47.1522V46.2332C157.953 42.6986 158.023 38.8811 158.235 35.4879C158.447 32.0946 158.447 29.0548 158.447 25.5909C158.447 22.8338 158.447 20.0061 158.306 17.2491V12.7954C158.518 8.12969 160.989 4.45365 165.155 2.54494C167.485 1.55524 170.38 0.777612 173.134 0.212068C174.899 -1.11461e-05 176.452 0.0706819 177.935 0.424147C180.477 1.20177 182.454 2.8984 183.513 4.87781L187.256 8.55384ZM210.839 50.9697C210.839 44.9607 210.627 38.8811 210.627 32.7309C210.486 27.853 210.627 22.8338 210.486 17.8146C210.345 15.8352 210.274 13.7144 210.062 11.735C209.709 9.54355 208.368 7.9883 206.391 7.84691C202.931 7.63483 199.542 7.70553 196.152 7.70553H195.941C194.246 8.05899 193.257 9.04869 193.046 10.6746C192.834 11.4523 192.834 12.2299 192.834 13.1489L193.257 20.7837C193.399 23.258 193.469 25.5909 193.469 27.9237C193.328 31.1756 192.269 32.4481 189.021 32.4481H183.231C182.595 32.4481 181.889 32.3067 181.254 32.0946C180.124 31.8825 179.489 31.1756 179.277 30.1152C179.065 29.3376 178.924 28.4186 179.065 27.641C179.065 25.9443 179.206 24.3184 179.206 22.5511C179.347 18.8043 179.347 14.9869 179.206 11.2402C179.206 10.3212 179.065 9.33147 178.853 8.48315C178.641 7.13998 177.865 6.15028 176.523 5.79682C175.817 5.65543 174.899 5.58474 174.122 5.65543C171.792 6.07959 169.603 6.64513 167.344 7.63483C165.155 8.62454 163.884 10.3919 163.813 12.8661V17.1077C164.025 23.3287 164.025 29.5497 163.672 35.7707C163.319 41.4261 163.249 47.0815 163.037 52.737C163.037 55.7061 162.895 58.7459 162.895 61.6443C162.895 63.1995 162.754 64.6134 162.754 66.098C162.754 67.6532 162.895 69.2084 162.895 70.7637V76.9847L163.319 99.1823V101.162C163.531 103.636 164.661 105.05 167.061 105.403C169.533 105.615 172.075 105.615 174.475 105.05C176.241 104.696 177.159 103.636 177.441 101.939C177.582 101.303 177.582 100.596 177.582 99.9599C177.582 96.6373 177.582 93.3148 177.441 89.9922C177.441 85.3265 177.794 80.6607 177.653 75.995C177.512 68.7843 177.653 61.6443 177.653 54.4336C177.653 53.4439 177.794 52.3128 177.865 51.3231C178.218 49.6265 178.994 48.8489 180.618 48.6368C183.937 48.0712 187.256 48.0712 190.574 48.2126C192.339 48.354 193.469 49.4144 193.893 51.1817C194.105 51.7473 194.246 52.3835 194.246 52.9491C194.458 56.2009 194.67 59.3821 194.811 62.7047C195.023 65.8152 195.023 69.0671 195.234 72.1776C195.587 77.4088 195.799 82.4987 195.658 87.73V99.0409C195.799 100.031 195.87 101.162 196.082 102.151C196.435 103.353 197.282 104.131 198.412 104.626C199.189 104.838 199.824 104.979 200.601 104.979C202.507 105.12 204.272 105.12 206.179 104.979C206.603 104.979 207.167 104.767 207.732 104.626C209.074 104.414 209.921 103.495 210.274 102.151C210.486 101.232 210.627 100.243 210.698 99.3944V94.0924L211.051 75.2174V73.0259L210.839 50.9697Z" fill="white"/>
<path d="M219.382 86.4577L219.806 81.6506L221.147 63.1997L222.136 54.7872L222.7 49.5559L223.336 44.4661C223.477 42.5573 223.689 40.2245 223.901 38.2451L224.536 31.8827V30.1861C224.536 29.8326 224.536 29.055 224.678 28.4894C224.889 23.8237 225.242 18.5924 225.595 14.0681C225.737 12.6542 225.949 10.7455 226.372 9.82647C227.361 6.15044 230.044 3.4641 233.716 2.68648L235.481 2.26232C238.799 1.90886 242.33 1.69678 246.566 1.69678C247.767 1.69678 249.814 1.69678 251.015 1.83816C253.133 1.97955 255.816 2.4744 257.652 3.25202C260.335 4.24173 262.524 5.93836 263.866 8.12984L267.537 11.8059C267.396 11.8059 267.396 11.6645 267.325 11.6645L267.537 11.8059C268.667 13.149 269.444 14.4922 270.009 16.3302L270.22 16.4716L271.138 20.2183L272.268 27.0049C273.045 31.812 273.963 37.114 274.598 41.9211C274.951 44.6781 275.022 47.7886 275.234 50.6163L275.587 54.8579L275.94 59.5237C276.081 61.5031 276.152 63.1997 276.293 63.6239C276.505 65.8153 276.858 68.0775 277.211 70.269C277.634 73.945 278.199 77.9038 278.552 81.5799C278.764 85.468 279.188 89.2147 279.682 93.1029L280.106 97.203C280.459 100.314 280.529 103.848 280.741 106.888L280.882 107.029C281.094 108.726 280.882 109.504 280.741 110.493C280.741 110.635 280.6 110.917 280.6 111.059C279.964 114.947 277.846 117.28 274.951 118.199C273.963 118.623 272.409 118.835 271.28 118.835H270.079C267.961 118.694 265.843 118.623 263.513 117.916C261.818 117.351 260.406 116.573 259.276 115.442L255.534 111.695C253.204 110.352 251.65 108.231 250.873 105.333C250.662 104.343 250.309 102.364 250.238 101.233C249.814 97.203 249.32 92.4666 249.038 88.225L248.826 86.4577L248.473 90.6993C248.332 91.9011 248.261 93.1735 248.261 93.8098L248.049 104.484C248.049 105.121 247.837 106.817 247.696 108.231C246.919 113.321 244.024 116.007 238.799 116.219H233.998C230.467 115.866 228.208 115.088 226.796 113.675L222.7 109.574C219.452 107.878 218.676 104.767 218.676 100.243H218.817C218.676 100.031 218.676 99.8894 218.676 99.6773L219.382 86.4577ZM224.183 100.455C224.183 103.424 224.96 105.262 228.843 105.545H233.08C235.41 105.403 236.61 104.343 236.964 102.081C237.105 101.091 237.175 99.9601 237.175 98.9704L237.387 88.2957C237.387 87.1646 237.528 85.9629 237.599 84.7611L239.152 69.5621L240.07 60.5841C240.212 59.9478 240.282 59.2409 240.494 58.6047C240.847 57.827 241.412 57.0494 242.4 56.8373C243.318 56.4839 244.166 56.4132 245.154 56.4132C246.284 56.4132 247.343 56.5546 248.473 56.7666C251.015 57.3322 251.791 58.1098 252.356 60.6548C252.498 61.0082 252.498 61.2203 252.498 61.5738L253.839 79.4591C253.98 81.3678 254.051 83.2058 254.263 85.0438C254.686 90.3458 255.181 95.7185 255.675 100.95C255.816 102.081 256.028 103.141 256.24 104.272C256.663 105.969 257.793 107.029 259.488 107.595C261.465 108.16 263.583 108.16 265.701 108.231C266.266 108.231 267.043 108.019 267.608 107.807C268.738 107.454 269.585 106.676 269.797 105.474C269.938 104.484 270.15 103.495 270.009 102.505C269.797 99.1824 269.585 95.8599 269.232 92.5373C268.667 87.2353 268.032 82.004 267.678 76.6314C267.255 70.7639 266.266 64.8256 265.56 58.9581C265.207 55.989 265.137 52.9492 264.783 49.9801C264.43 45.7385 264.36 41.5676 263.795 37.3261C262.806 30.1861 261.606 22.9754 260.476 15.9061C260.265 14.9164 260.053 13.9267 259.7 12.937C259.135 10.9576 257.934 9.6144 255.957 8.90747C254.192 8.27123 252.427 7.77638 250.662 7.70568C246.001 7.35222 241.341 7.70568 236.681 8.12984L235.128 8.48331C233.362 8.83677 232.233 9.89717 231.809 11.5938C231.456 12.5835 231.244 13.5732 231.244 14.7043C230.891 19.5114 230.609 24.3892 230.326 29.2671C230.185 30.3981 230.326 31.4585 230.185 32.5896L228.985 45.173L227.784 55.6355L226.796 63.9773L225.454 82.2868L225.031 86.9526L224.254 100.172C224.183 100.031 224.042 100.243 224.183 100.455ZM241.694 24.8841C241.836 23.9651 242.118 23.1875 242.612 22.4098C244.024 20.5011 246.849 20.6425 248.049 22.6219C248.473 23.3995 248.826 24.3185 248.967 25.0962L249.885 31.8827L250.238 36.3364C250.238 37.3261 250.238 38.2451 249.885 39.2348C249.673 39.871 249.249 40.5779 248.543 40.79C247.131 41.4263 245.578 41.7797 244.024 41.4263C242.683 41.0728 241.906 40.2952 241.694 39.0934C241.553 38.1744 241.483 37.3261 241.483 36.407V32.0948L241.694 24.8841Z" fill="white"/>
<path d="M313.999 110.705C312.021 109.574 310.468 107.736 309.691 105.12L308.703 101.091L307.785 95.6475C307.926 97.839 308.209 100.101 308.42 102.293C308.42 102.505 308.42 102.646 308.562 102.929C308.562 103.282 308.703 104.484 308.703 104.838C308.703 105.262 308.844 105.827 308.915 106.251C309.338 111.129 306.938 116.007 300.159 116.361H300.018L294.581 116.785H291.898C289.427 116.431 287.591 115.654 286.108 114.24L282.224 110.352C279.894 109.009 278.341 106.888 277.917 103.565C277.776 103 277.776 102.01 277.776 101.444V98.4753C277.776 97.4855 277.635 96.4958 277.635 95.3648V92.2543C277.635 90.0628 277.494 87.8006 277.635 85.8919C277.635 84.1953 277.494 82.5693 277.494 80.8727V75.7828C277.352 72.8137 277.352 67.8652 277.352 65.1081V39.6587C277.352 38.669 277.211 37.5379 277.211 36.5482V30.3272C277.211 28.2064 277.07 26.0149 277.211 24.1062V22.3389C277.211 18.4508 277.211 14.5626 277.635 11.028C278.623 5.23116 281.307 2.61552 286.814 1.55513H286.673C288.367 1.20166 289.638 1.20166 291.121 1.20166C292.604 1.20166 294.581 1.34305 295.993 1.41374C298.676 1.62582 301.642 2.19136 304.961 3.18106L306.514 3.74661C308.632 4.8777 310.609 6.64502 311.951 8.62443L315.623 12.1591L315.976 12.5125C315.976 12.0884 316.117 11.5228 316.187 11.1694V10.7452C316.964 7.21057 319.647 4.8777 322.048 3.88799C324.802 2.75691 327.626 2.54483 330.38 2.96899C333.134 3.39314 335.464 4.94839 337.017 7.49334L340.265 10.8159L340.406 10.9573L341.042 11.3108C342.03 12.3005 342.807 13.5022 343.372 15.0575L343.796 16.9662C344.431 20.6422 345.137 24.389 345.702 28.065C346.126 30.1858 346.338 32.7307 346.479 34.286C346.902 40.7191 347.255 47.647 347.608 54.08C347.608 54.8577 347.75 55.8474 347.82 56.9785C348.032 60.2303 348.173 63.9771 348.173 67.2996C348.173 69.7739 348.032 72.3895 347.962 74.8638C347.962 76.0656 347.82 77.0553 347.82 78.3277C347.82 79.1054 347.679 80.0951 347.679 80.8727C347.538 82.4279 347.467 83.8418 347.467 85.3263L346.902 105.191C346.902 106.605 346.761 108.16 346.479 109.645C345.49 114.098 342.948 116.855 337.935 117.28C337.3 117.421 336.523 117.492 335.746 117.492L325.508 117.35H324.307C321.624 117.138 319.435 116.149 317.882 114.593L313.999 110.705ZM298.959 35.7705C299.524 37.5379 300.159 39.2345 300.653 41.0725L305.949 62.0684C306.867 65.5323 307.856 68.9256 308.632 72.3895C310.609 81.5089 312.657 90.6283 314.069 99.8184C314.281 100.95 314.634 102.151 314.987 103.282C315.623 105.262 317.176 106.251 319.294 106.534H319.93L330.168 106.746C330.733 106.746 331.298 106.605 331.933 106.534C334.052 106.322 335.393 105.12 335.817 103C336.029 101.869 336.17 100.808 336.17 99.677L336.735 79.6709C336.735 77.4794 336.946 75.1466 337.088 72.8137C337.229 69.1376 337.441 65.4616 337.441 61.7856C337.441 57.3319 337.088 53.0196 336.876 48.7074C336.523 42.1329 336.24 35.6999 335.746 29.1254C335.605 27.2167 335.393 25.3787 335.111 23.47C334.546 19.7939 333.91 16.1179 333.204 12.4418L332.851 11.028C332.286 9.61413 331.157 8.69512 329.744 8.48304C327.838 8.12958 326.073 8.34165 324.307 9.11928C323.178 9.54344 322.33 10.3211 321.977 11.6642C321.836 12.4418 321.624 13.3609 321.766 14.2092C321.766 18.2387 321.907 22.1975 321.977 26.227C322.119 28.3478 322.119 30.3272 322.119 32.448C322.26 36.1947 322.472 40.0121 322.472 43.7589C322.472 47.8591 322.26 51.9592 322.048 56.2008C322.048 57.1198 321.836 58.1095 321.695 58.9579C321.554 59.3113 321.554 59.7355 321.059 59.9476C320.706 60.0889 320.424 59.3113 320.283 58.9579C319.93 58.3216 319.718 57.544 319.506 56.7664L317.811 50.5454L313.01 31.6703C311.457 25.8028 310.115 20.006 308.562 14.2092C308.42 13.6436 308.209 13.0781 307.997 12.5125C307.432 10.8159 306.302 9.75552 304.749 8.97789L303.054 8.34166C300.724 7.70542 298.253 7.21057 295.711 6.99849C293.169 6.78641 290.627 6.57433 287.944 6.99849C285.049 7.42265 283.707 8.76581 283.284 11.6642C282.719 15.7644 282.86 20.006 282.86 24.1062C282.719 29.3375 283.001 34.4274 283.001 39.6587C283.001 48.0711 283.142 56.625 283.001 65.2495C283.001 72.1068 283.213 79.1054 283.213 86.0333C283.072 91.2646 283.354 96.4958 283.354 101.586C283.354 102.01 283.354 102.363 283.495 102.717C283.707 104.838 284.908 105.969 286.955 106.181H288.932L294.228 105.757C297.194 105.615 298.323 103.565 298.111 101.444C298.111 100.879 297.97 100.243 297.9 99.677C297.9 98.8994 297.688 98.2632 297.688 97.4855C297.264 93.3854 296.911 89.2852 296.911 85.185C296.77 80.9434 296.487 76.8432 296.346 72.743V51.8886C296.346 48.9194 296.699 46.021 296.487 42.9812C296.276 40.6484 296.276 38.1741 296.841 35.8412C296.982 35.205 296.982 34.4274 297.617 34.1446C298.394 34.0032 298.747 35.1343 298.959 35.7705ZM340.477 10.8866C340.618 10.8866 340.618 10.8866 340.618 11.028L340.477 10.8866Z" fill="white"/>
<path d="M356.575 83.7005L356.787 75.0053V55.2112C356.787 51.8886 356.999 48.2126 357.211 44.9607C357.352 42.2744 357.352 38.5277 357.352 35.6292C355.022 35.4172 353.327 34.6395 352.268 33.2964L348.032 29.1962C346.055 27.9944 344.713 25.8736 343.936 22.9752C343.725 22.339 343.725 21.632 343.725 20.7837L343.513 12.3712C343.513 9.26075 344.925 6.57442 348.173 4.17085C349.303 3.53462 352.198 3.18115 353.963 3.18115C355.869 3.39323 357.988 3.39323 359.612 3.39323C361.377 3.39323 363.495 3.39323 365.26 3.53462C365.472 3.53462 365.825 3.676 366.037 3.676H366.672C369.991 3.88808 373.875 4.24155 377.193 4.66571L382.065 5.23125L383.83 5.79679C386.725 6.57442 389.056 8.12966 390.397 10.4625L394.281 14.3506C395.834 15.9059 396.752 18.0267 396.823 20.7837V27.2168C396.258 32.3067 393.857 34.993 388.914 35.6292C388.491 35.7706 387.996 35.7706 387.573 35.7706L388.349 41.9916C388.914 48.0005 389.126 54.0801 388.985 60.3011C388.844 63.553 388.844 66.5221 388.844 69.774V72.7431C388.985 75.6415 388.985 79.6003 388.985 82.4987C388.985 84.1954 388.985 86.1748 388.844 87.8007C388.632 89.9215 388.491 91.9009 388.491 93.6682C388.491 95.8597 388.632 98.334 388.844 100.808C388.985 102.363 389.056 104.343 389.056 106.039C389.056 106.817 388.844 108.019 388.632 109.15C387.432 113.816 384.748 116.149 380.229 116.573L373.38 117.35C371.615 117.492 369.497 117.209 367.943 116.573C366.814 116.149 365.966 115.583 365.19 114.805L361.306 110.917C359.329 109.786 357.846 108.019 357.211 105.686C356.858 104.767 356.646 103.212 356.646 102.01C356.434 99.253 356.434 95.5769 356.434 92.8199C356.505 89.7801 356.505 86.6696 356.575 83.7005ZM362.436 74.7932L362.083 83.9126C361.942 89.7801 361.871 95.7183 362.224 101.657C362.224 102.293 362.365 103.07 362.577 103.777C362.789 104.908 363.495 105.686 364.484 106.11C365.402 106.464 366.39 106.676 367.379 106.534L374.369 105.757C376.487 105.545 377.687 104.414 378.252 102.293C378.394 101.727 378.464 101.091 378.464 100.384C378.464 98.6874 378.323 97.0615 378.252 95.5062C377.899 90.8405 377.829 86.3161 378.252 81.7211C378.394 80.0245 378.394 78.4692 378.394 76.8433C378.394 73.5914 378.394 70.4809 378.252 67.2997C378.252 62.9874 378.111 58.7459 378.394 54.4336C378.535 48.5661 378.252 42.6279 377.758 36.7603L376.981 30.3273C376.84 29.3376 376.84 28.2065 376.981 27.2168C377.334 25.6615 378.182 25.0253 379.735 24.8839C380.653 24.7425 381.5 24.8839 382.418 24.7425C384.748 24.5304 385.949 23.3994 386.161 21.0665C386.302 19.1578 386.161 17.037 386.161 15.199C386.019 12.8661 384.748 11.5229 382.63 10.9574L381.077 10.6039L376.84 10.0384C372.957 9.26075 368.932 9.11937 364.978 8.90729C361.236 8.55382 357.352 9.04867 353.469 8.55382C352.551 8.41244 351.492 8.69521 350.574 9.19006C349.585 9.96768 349.161 10.9574 349.161 12.1592L349.373 20.5716C349.373 20.7837 349.373 21.1372 349.514 21.3493C349.938 23.4701 351.068 24.4598 353.186 24.6718L357.423 24.8839C358.341 24.8839 359.329 25.0253 360.176 25.096C361.518 25.2374 362.365 26.015 362.718 27.2875L363.071 29.6203V32.0946C363.071 36.4069 363.213 40.7898 362.93 44.9607C362.718 48.2833 362.507 51.6059 362.507 54.9284V74.5104H362.436V74.7932ZM387.573 34.2154V34.074L388.985 35.4879L387.573 34.2154Z" fill="white"/>
<path d="M425.843 107.1C421.324 103.636 418.076 98.7582 416.311 93.1028C415.676 91.1234 415.181 88.2957 414.969 86.2456C414.616 83.9127 414.405 81.0143 414.334 78.2573C414.122 71.0466 417.017 66.7343 425.561 66.1688C425.773 66.1688 425.984 66.0274 426.338 66.0274H428.032C428.809 66.0274 429.586 66.0274 430.786 66.1688C432.127 66.3809 433.257 66.7343 434.246 67.2999C430.715 62.9876 428.173 57.6149 425.843 53.0906C424.925 51.1819 423.301 47.8593 422.525 46.092L421.324 43.3349L420.195 40.6486C418.782 37.326 418.217 33.65 418.217 30.186C418.217 28.7722 418.359 26.8635 418.571 25.1668C418.712 24.1771 418.782 22.6926 419.135 21.7029C419.135 21.5615 419.277 21.4908 419.277 21.3494C419.912 18.2389 421.042 15.4819 422.525 13.149L425.773 8.83673C427.75 6.36248 430.786 4.171 433.398 3.03991C438.059 1.27258 443.637 0.0708008 448.791 0.0708008C450.556 0.0708008 452.534 0.424266 454.652 0.848424C459.453 2.19159 463.195 5.30208 465.879 9.04881L468.562 11.7351C469.903 13.0783 471.033 14.4215 471.88 15.9767C473.646 19.2286 474.775 23.1167 475.411 26.6514C475.834 28.9842 476.188 31.8827 476.541 34.2155C476.541 34.4276 476.682 35.2052 476.682 35.4173C476.823 36.5484 476.541 38.1036 476.47 39.5175C475.905 42.8401 473.999 45.1729 471.174 46.5161L466.302 48.2127H466.443L464.255 48.9904L464.043 48.849C463.478 48.9904 462.631 49.2024 462.136 49.2024C461.924 49.2024 461.783 49.3438 461.571 49.3438L462.984 51.2525L463.407 51.606C464.537 53.3026 465.737 55.1407 466.938 56.8373L467.079 56.9787C470.962 62.422 473.504 69.562 475.058 75.6416C476.046 79.5298 476.258 83.4179 476.188 87.5181V87.7301C476.329 91.7596 475.976 95.5064 475.199 99.3945C474.069 105.05 471.315 109.645 467.079 113.392C462.278 117.492 456.77 119.754 450.556 119.401C448.226 119.259 446.108 118.835 444.202 118.27C442.083 117.633 439.541 116.714 437.564 115.937C434.246 114.523 431.492 112.685 429.233 110.352L425.843 107.1ZM464.113 71.1173C462.701 65.1084 460.583 59.3115 456.982 54.2216L453.31 48.9904C451.333 46.304 449.285 43.7591 447.45 41.0728C446.249 39.3761 445.12 37.6088 444.484 35.7708C443.707 33.65 443.142 31.6706 443.354 29.4084C443.354 27.9945 443.778 26.6514 444.767 25.5203C445.967 24.1064 447.873 24.1064 449.074 25.6617C449.639 26.2979 450.062 27.0755 450.274 27.9945C450.698 29.5498 450.909 31.2464 451.192 32.8017C451.404 33.7914 451.545 34.7811 451.827 35.7708C452.463 37.5381 453.734 38.5278 455.499 38.3157C455.923 38.3157 456.276 38.4571 456.629 38.3157C458.818 37.5381 461.148 36.9019 463.266 35.9829C464.466 35.4173 465.243 34.4276 465.455 33.0844C465.596 32.0947 465.667 30.9637 465.596 29.9739C465.243 27.2876 464.961 24.5306 464.466 21.8442C463.902 18.7338 463.054 15.6233 461.501 12.8662C459.594 9.40228 456.841 7.06941 453.098 6.07971C451.686 5.72624 450.133 5.51416 448.579 5.51416C443.919 5.51416 439.471 6.50387 435.164 8.2005C433.045 8.97812 431.28 10.3213 429.939 12.0886L426.973 16.3302C425.843 18.0975 425.067 20.0062 424.643 21.9856C424.431 23.1874 424.078 24.4599 424.007 25.7324C423.443 29.9739 423.584 34.2862 425.208 38.3864L426.408 41.1434C427.82 44.2539 429.162 47.3644 430.715 50.3335C433.045 55.1407 435.517 59.8064 438.694 63.9066C439.894 65.4618 441.165 66.8757 442.436 68.3603C444.908 71.3294 446.744 74.7226 448.015 78.328C448.65 80.3074 448.791 82.4282 448.579 84.4076C448.226 86.9525 447.167 89.0733 445.12 90.6285C443.566 91.9717 441.377 91.9717 439.894 90.8406C438.906 90.2044 437.917 89.2854 437.141 88.3664C434.458 85.3973 433.398 81.7212 433.045 77.8331C432.904 76.49 432.834 75.2882 432.622 74.0864C432.41 72.6725 431.492 71.7535 429.939 71.5414C429.303 71.4001 428.597 71.4001 427.962 71.4001C427.326 71.4001 426.549 71.5414 425.773 71.5414C421.254 71.8949 419.771 74.0864 419.912 77.9038C420.053 80.4488 420.265 82.9937 420.548 85.468C420.759 87.4474 421.112 89.4975 421.677 91.3355C423.654 97.7685 427.538 102.576 433.751 105.191C435.729 105.969 437.776 106.747 439.824 107.383C441.518 107.807 443.284 108.302 444.908 108.302C449.78 108.514 454.087 106.888 457.759 103.636C461.077 100.667 463.337 96.9909 464.184 92.5373C464.819 89.0026 465.173 85.3973 465.102 81.7919C465.243 78.2573 465.031 74.6519 464.113 71.1173ZM441.518 85.5387L441.095 85.1145C441.165 85.3266 441.236 85.468 441.518 85.5387Z" fill="white"/>
<path d="M501.184 8.76604L501.96 9.54366C502.737 6.0797 505.067 3.32267 510.928 2.96921C512.834 2.82782 515.729 2.96921 517.565 3.11059C518.907 3.11059 520.884 3.32267 522.084 3.53475C524.979 3.95891 527.309 5.44346 528.862 7.63495L533.311 11.9472C534.441 13.0783 535.217 14.4922 535.782 16.4009C536.206 17.8147 536.206 19.1579 536.347 20.5011L536.559 20.6425C537.477 28.0652 538.253 35.9829 538.536 43.4056C538.748 48.4955 538.96 53.8682 538.96 58.9581C538.96 63.8359 538.96 69.0672 538.395 73.5915L537.971 76.49C537.759 77.409 537.618 78.6107 537.547 79.8125L537.194 83.2765C537.053 84.9731 536.841 86.8111 536.629 88.3664C536.065 92.608 534.935 96.9202 533.311 101.445H533.17C530.84 108.231 522.719 115.088 515.164 116.078C513.823 116.219 512.481 116.29 511.493 116.502L509.727 116.714C507.821 116.714 505.067 116.361 503.514 116.078C498.43 114.664 494.052 112.049 490.663 108.514L487.98 105.969C485.508 104.06 483.32 101.727 481.413 99.1824C477.741 94.1632 475.764 88.4371 474.776 82.4282V82.5696C473.999 78.1159 473.787 72.8139 473.858 68.3603C473.858 66.2395 473.717 64.2601 473.646 62.1393L473.223 52.6664C473.223 50.1215 473.081 47.4351 473.011 44.7488V43.547C473.011 43.1228 473.152 42.7694 473.152 42.3452V34.1448C473.152 32.5896 473.293 31.2464 473.152 29.6205C472.94 26.6514 472.799 22.6219 472.799 19.6528V16.8957C472.799 15.9767 472.94 14.987 472.94 13.9973C472.94 7.21079 476.047 3.11059 484.379 3.74683C485.579 3.88822 486.568 3.88822 487.627 3.88822C488.05 3.88822 488.615 4.0296 489.18 4.0296H490.734L494.405 4.38307C497.653 4.87792 499.983 6.43317 501.184 8.76604ZM510.08 51.4646V57.0494C510.292 65.8153 509.092 74.3692 507.75 82.923C507.397 84.6197 507.115 86.2456 506.197 87.7301C504.997 90.063 502.737 90.2751 500.901 88.5078C500.548 88.0836 500.266 87.7301 499.983 87.306C499.56 86.387 499.207 85.5387 498.854 84.6196C498.218 82.1454 498.077 79.7418 498.077 77.2676C497.936 74.2985 497.865 71.188 497.865 68.0775C497.724 64.048 497.653 60.0892 497.724 56.0597C497.865 52.8078 497.865 49.6973 497.724 46.5161C497.512 41.4969 497.512 36.6191 497.371 31.5999V29.4084C497.018 24.884 496.806 20.289 497.018 15.6233V13.6439C496.806 11.5231 495.676 10.3213 493.558 9.89712L490.098 9.54366C487.98 9.40227 485.862 9.54366 483.884 9.33158C479.86 8.97812 478.448 10.8868 478.448 13.9973C478.306 19.0872 478.306 24.2478 478.659 29.3377C478.871 33.0137 478.659 36.6898 478.659 40.4365C478.659 41.8504 478.518 43.3349 478.518 44.8902C478.659 47.5765 478.73 50.1921 478.73 52.8078L479.154 62.1393C479.295 64.3308 479.366 66.5929 479.366 68.7844C479.154 73.2381 479.507 77.5503 480.142 81.8626C481.06 86.9525 482.684 91.8303 485.791 96.0719C489.251 100.738 493.417 104.06 499.136 105.615C500.689 105.969 502.243 106.252 503.937 106.181C505.632 105.969 507.256 105.615 509.021 105.545C514.882 104.767 521.025 99.5359 522.79 94.3046C524.202 90.2751 525.261 86.3163 525.756 82.2868C526.179 79.3884 526.321 76.6313 526.674 73.8743C526.885 71.7535 527.309 69.6327 527.592 67.5119C528.156 62.8462 528.156 58.1805 528.156 53.5147C528.156 48.4248 527.945 43.2642 527.733 38.1743C527.38 30.7516 526.603 23.2581 525.756 15.8353C525.614 14.7043 525.544 13.6439 525.191 12.5835C524.626 10.392 523.284 9.26089 520.954 9.04881C519.754 8.83673 518.483 8.69534 517.212 8.69534C515.235 8.55396 513.187 8.48326 511.21 8.55396C507.892 8.69534 507.185 10.6747 507.185 12.7955L507.397 15.2698L508.033 20.5718C508.598 25.4496 509.163 30.3274 509.586 35.3466C509.798 38.8106 509.939 42.2038 510.01 45.6678V51.4646H510.08ZM536.488 20.6425C536.488 20.7839 536.629 20.7838 536.629 20.7838L536.488 20.6425Z" fill="white"/>
<path d="M536.347 77.197V75.5004C536.347 74.5814 536.206 73.5917 536.206 72.2485V68.5725C536.206 68.1483 536.347 67.6535 536.347 67.2293C536.347 66.5931 536.206 66.0275 536.206 65.462V63.6947C536.064 62.4929 536.064 60.3721 536.064 59.1703C536.064 58.5341 536.206 57.8272 536.206 57.1909V51.182C536.206 51.0406 536.347 50.8285 536.347 50.6165V50.1923C536.206 48.2836 536.135 45.3145 536.135 43.7592C536.135 38.8814 536.488 33.6501 536.771 28.7723C536.912 26.6515 536.982 23.9652 536.982 21.7737L537.335 12.5836V12.0181C537.335 11.5939 537.335 10.887 537.477 10.3214C538.042 6.57472 540.372 3.53492 544.255 2.19175C545.385 1.76759 546.726 1.41413 548.35 1.27274C550.681 0.848582 553.222 0.495117 555.694 0.495117C558.942 0.495117 562.26 0.495117 565.367 0.848582C572.499 1.62621 578.43 5.09016 583.02 10.7456L583.655 11.7353L586.197 14.2096C586.974 14.9872 587.609 15.6234 588.315 16.5424C590.787 19.6529 592.834 23.1169 593.964 27.2878C594.388 28.9844 594.741 30.6103 594.882 31.8121C595.094 34.0036 595.306 36.6192 595.306 39.2349C595.306 41.4264 595.164 43.5472 594.952 45.3145C594.176 52.1717 591.069 57.8978 586.55 62.7757H586.691L584.573 64.9671L586.126 69.9864C587.115 73.521 588.103 77.3384 588.668 81.4386C589.233 84.5491 590.222 87.6596 591.351 90.9115L596.153 105.333L596.365 105.474C597 107.029 597.353 108.938 597.283 110.706C597.141 114.028 595.306 116.29 591.281 117.704L589.586 118.128L587.256 118.34C585.703 118.552 583.937 118.765 582.737 119.118C581.819 119.33 581.042 119.471 579.842 119.471C577.3 119.33 575.182 118.552 573.629 116.997L569.604 112.968C568.968 112.614 568.262 112.049 567.697 111.554C566.709 114.523 564.449 116.432 561.06 117.421C558.094 118.199 555.058 118.552 551.74 118.552C549.198 118.552 547.079 117.633 545.667 116.22L541.784 112.331C539.242 110.988 537.759 108.443 537.124 105.121L536.912 103.707V102.717C536.912 102.364 536.771 101.94 536.771 101.515V99.3946C536.629 94.8703 536.559 88.0838 536.559 83.7008C536.488 82.4283 536.347 79.8834 536.347 77.197ZM541.925 75.9246C542.066 83.7008 542.066 91.477 542.278 99.2533C542.278 100.667 542.419 102.222 542.419 103.707L542.631 104.838C542.984 106.747 544.184 107.807 546.162 107.807C548.915 107.807 551.598 107.454 554.282 106.817C556.4 106.252 557.53 104.909 557.6 102.576C557.6 101.445 557.6 100.384 557.459 99.2533C557.247 96.1428 556.894 92.8909 556.824 89.7804C556.612 84.1249 556.4 78.3281 556.259 72.6727C556.117 70.5519 556.259 68.3604 556.259 66.2396C556.259 65.3206 556.47 64.4723 557.177 63.9067C557.741 63.3412 558.377 63.2705 558.942 63.6947C559.365 64.0481 559.86 64.6137 560.142 65.0378L560.778 66.9465C562.472 72.7434 564.026 78.6109 565.297 84.4784C566.85 91.0529 568.403 97.5566 570.098 104.131C570.31 104.909 570.522 105.828 571.016 106.605C571.651 108.019 572.922 108.585 574.476 108.726C574.899 108.726 575.464 108.585 576.029 108.514C578.359 107.948 580.831 107.736 583.231 107.383L584.644 107.029C585.844 106.605 586.409 105.686 586.409 104.485C586.55 103.353 586.056 102.505 585.773 101.515C584.079 96.7083 582.455 91.8305 580.901 87.0941C579.701 83.6301 578.571 80.3075 578.006 76.7729C577.441 73.2382 576.594 69.5622 575.535 66.0275L573.84 60.5842C573.275 58.8875 573.699 57.4737 574.829 56.2719L577.018 53.939C580.901 49.8388 583.443 45.0317 584.149 39.3056C584.573 35.2054 584.502 31.1052 584.008 26.8636C583.867 25.6618 583.655 24.3894 583.373 23.1876C582.455 19.865 580.689 16.9666 578.571 14.2803C575.041 9.7559 570.451 7.14026 564.732 6.50402C561.625 6.15056 558.659 6.15056 555.623 6.15056C553.434 6.15056 551.175 6.50402 548.986 6.92818C547.997 7.06957 547.009 7.28165 546.02 7.56442C544.114 8.12996 543.267 9.54382 543.055 11.4525C542.914 11.8767 542.914 12.3715 542.914 12.7957L542.561 21.9151C542.561 24.3894 542.419 26.7222 542.349 29.0551C541.925 36.0537 541.431 42.9109 541.925 49.9095C541.925 50.4751 541.784 51.0406 541.784 51.6769C541.784 54.1511 541.643 56.6961 541.643 59.241C541.643 61.9273 541.854 64.6844 541.854 67.3707C541.854 69.138 541.713 70.8347 541.713 72.4606C541.713 73.6624 541.854 74.9349 541.925 75.9953V75.9246ZM556.894 33.7915L557.106 28.2068L557.318 25.0963C557.53 23.1169 559.012 21.9858 560.848 21.6323C564.52 20.7133 567.98 22.2686 569.251 25.9446C571.793 32.5191 571.44 38.9521 566.709 44.7489C564.944 46.8697 562.614 48.0008 559.86 48.425C557.671 48.7784 556.329 47.7887 556.188 45.4559C556.047 44.8196 556.188 44.042 556.188 43.4765L556.894 33.7915Z" fill="white"/>
<path d="M598.271 107.312C596.153 105.898 594.952 103.565 594.529 100.313C594.388 99.3942 594.388 97.9804 594.388 96.8493V91.9008C594.388 87.8713 594.388 83.9832 594.246 80.0951C594.246 77.1966 594.034 74.4396 593.823 71.5412V70.9757L593.611 66.1685C593.611 65.2495 593.47 64.1891 593.399 62.6339C593.399 62.0683 593.258 61.5028 593.258 60.9373C593.117 59.382 593.046 57.1905 593.117 55.4939C593.117 50.0505 593.47 44.4658 593.752 39.1638L594.529 25.4494C594.67 23.1165 594.741 20.925 594.741 18.5921V16.6127C594.741 15.9765 594.882 15.1989 594.882 14.2799C595.023 13.0781 595.094 11.8056 595.447 10.6038C596.576 6.29155 599.471 3.39314 603.849 2.26205C605.05 1.90858 606.744 1.83789 608.298 1.83789C609.639 1.83789 611.051 1.97928 612.181 2.04997C615.5 2.47413 617.971 4.02937 619.313 6.50363L623.337 10.3917C624.749 11.8056 625.667 13.9264 625.879 16.4713C625.879 17.249 625.879 17.8145 626.02 18.3801V22.4096C626.02 24.9545 626.162 27.2874 626.162 29.6202V35.9826C626.162 39.3052 626.02 42.7691 626.02 46.0917C625.879 49.4143 625.879 52.6662 625.879 55.9887C625.879 58.7458 626.02 61.5735 626.091 64.4012C626.091 65.8151 626.232 67.3703 626.232 68.8549C626.232 72.1068 626.232 75.0759 626.444 78.3277C626.656 81.0848 626.797 83.9125 626.656 86.7402L626.232 99.8184C626.091 101.515 626.02 103.141 626.02 104.908C625.597 111.907 622.49 114.805 615.5 115.017H611.757C610.416 115.017 609.427 114.805 608.227 114.452C606.038 113.886 604.202 113.109 603.002 111.907L598.271 107.312ZM615.147 13.2195C615.005 12.6539 615.005 12.0884 615.005 11.4521C614.794 9.26066 613.664 7.7761 611.546 7.56403C609.357 7.21056 607.097 7.21056 604.908 7.70541C602.578 8.12957 601.378 9.61412 600.813 11.8056C600.601 12.7953 600.46 13.9264 600.389 15.0575C600.248 18.5921 600.248 22.1975 600.036 25.7321L599.401 39.5173C599.048 44.9606 598.765 50.404 598.765 55.8474C598.624 59.3113 599.118 62.846 599.189 66.3099C599.401 70.8343 599.824 75.4293 599.824 80.0951C600.036 85.3263 599.966 90.6283 599.966 96.001C599.966 97.3442 599.824 98.5459 600.107 99.7477C600.319 102.293 601.448 103.424 603.849 103.989C604.626 104.201 605.261 104.343 606.038 104.343H609.78C613.311 104.201 614.864 102.788 615.076 99.2529C615.076 97.4855 615.217 95.7889 615.288 94.163L615.711 81.0848C615.853 78.5398 615.711 75.9949 615.5 73.3085C615.288 69.986 615.288 66.6634 615.288 63.4115C615.147 59.0992 614.935 54.7163 614.935 50.5454C614.935 43.9002 615.147 37.1844 615.147 30.5393C615.147 26.227 615.005 21.844 615.005 16.9662V13.2195H615.147Z" fill="white"/>
<path d="M305.949 134.105H306.725C308.279 134.105 310.185 134.105 312.021 134.529C315.269 135.307 318.023 136.721 320.423 139.195C321.412 140.326 322.401 141.387 323.318 142.659L325.79 144.992C328.261 147.325 330.097 150.011 331.368 152.98L331.227 152.839C333.345 158.07 334.333 163.301 333.769 168.603V168.745C333.627 169.876 333.557 170.866 333.557 171.431L333.345 174.966C332.992 178.854 332.145 182.53 330.874 186.065C334.616 186.206 337.299 187.62 338.782 190.518L342.665 194.265C344.078 195.679 344.995 197.729 345.207 200.274C345.348 201.97 345.348 203.596 344.995 205.576C344.854 205.929 344.854 206.353 344.854 206.565C343.866 213.14 342.736 219.785 340.618 225.582C340.265 226.501 340.406 227.279 340.971 228.056L346.055 235.691C346.478 236.327 346.972 237.034 347.608 238.377C350.927 245.588 347.961 250.254 340.053 250.819H338.217C336.805 250.678 334.898 250.961 332.992 251.173L330.803 251.385C330.168 251.526 329.108 251.597 328.261 251.597C325.719 251.597 322.965 250.466 320.918 248.84L320.282 248.274L319.859 248.486C317.105 249.9 313.645 251.385 310.75 252.233C308.42 252.869 305.878 253.364 303.407 253.364C301.43 253.364 299.523 253.152 297.617 252.728C295.075 252.162 292.604 251.526 290.838 250.961C287.59 249.83 284.837 248.062 282.718 245.941L279.823 243.043C275.163 239.933 272.268 235.125 270.927 228.834C270.503 226.36 270.15 223.39 270.503 221.058C270.715 217.523 271.844 213.705 273.468 210.807V210.948C276.787 205.152 280.318 199.425 285.26 194.406L285.684 194.053C285.684 194.053 285.825 193.911 285.825 193.841L285.048 192.144V192.285C282.506 187.973 280.388 183.732 278.482 179.702C277.281 176.804 276.152 174.117 275.587 170.795C275.163 168.886 275.022 167.048 275.022 164.927C275.022 162.948 275.163 161.181 275.587 159.272C276.222 156.303 277.352 153.192 278.694 150.365C281.659 144.568 286.108 140.68 291.262 137.498C293.945 136.085 296.558 134.741 299.947 134.247C300.935 134.105 301.924 134.034 303.619 134.034C303.972 134.034 304.254 133.893 304.536 133.893H305.172C305.384 134.034 305.737 134.105 305.949 134.105ZM300.582 139.902C298.252 140.255 296.134 141.245 294.157 142.376C289.85 145.063 286.037 148.244 283.707 152.909C282.506 155.384 281.589 157.929 281.024 160.686C280.388 163.655 280.459 166.695 281.024 169.664C281.447 172.35 282.436 174.895 283.566 177.44C285.472 181.54 287.449 185.57 289.779 189.458L291.474 192.568C292.039 193.77 291.897 195.043 291.121 196.103C290.556 196.881 289.92 197.658 289.214 198.294C284.766 202.819 281.447 208.191 278.341 213.635C276.928 216.109 276.152 218.725 276.01 221.623C275.799 223.744 276.01 225.723 276.363 227.844C277.564 233.924 281.024 238.307 287.025 240.427C289.002 241.064 291.121 241.629 293.098 242.124C296.628 242.902 300.229 242.76 303.619 241.771C306.372 240.852 309.055 239.862 311.597 238.448L313.927 237.246C315.057 236.822 315.905 237.034 316.822 237.67L318.517 239.226C319.647 240.357 321.059 240.922 322.612 240.922C323.248 240.922 323.813 240.781 324.378 240.71C327.131 240.498 329.956 239.933 332.78 240.145H334.333C337.44 239.933 338.641 238.024 337.299 235.125C336.946 234.489 336.522 233.782 336.099 233.146L331.015 225.511C329.461 223.32 329.108 220.987 330.097 218.301C332.286 212.292 333.204 205.859 334.192 199.496C334.404 198.153 334.404 196.739 334.333 195.255C334.122 192.922 332.78 191.72 330.45 191.72C329.885 191.72 329.32 191.861 328.897 191.861L323.813 192.639C323.177 192.78 322.612 192.851 321.906 193.063C320.353 193.629 319.364 194.618 319.223 196.315L318.87 199.001C318.729 199.92 318.658 200.91 318.446 201.758C318.235 202.395 317.529 202.677 317.034 202.395L316.116 201.758C314.916 200.557 313.927 199.213 313.221 197.658C312.586 196.315 312.586 194.901 313.221 193.558C313.645 192.568 314.21 191.579 314.775 190.66C316.328 187.973 317.74 185.428 319.011 182.53C320.777 178.288 322.118 173.976 322.471 169.31C322.683 167.119 322.683 164.857 322.895 162.665C323.46 158.141 322.542 153.758 320.777 149.446C319.859 147.113 318.446 145.133 316.54 143.366C314.845 141.669 312.868 140.68 310.538 140.114C308.773 139.69 306.867 139.761 304.96 139.69C303.689 139.69 302.136 139.69 300.582 139.902ZM296.134 226.36C293.663 225.228 292.392 223.108 292.604 220.492C292.745 219.361 292.957 218.301 293.38 217.24C294.298 214.907 295.569 212.999 297.476 211.231C297.687 211.019 297.899 210.666 298.252 210.595C299.594 209.605 300.724 209.676 301.783 210.807C302.136 211.161 302.559 211.585 302.771 212.009L308.067 220.704C308.42 221.34 308.632 222.118 308.702 222.825C308.844 223.815 308.491 224.592 307.714 225.158C307.149 225.511 306.584 225.935 305.949 226.147C304.254 226.784 302.489 227.279 300.512 227.279C299.17 227.279 297.617 226.925 296.134 226.36ZM298.464 159.484C299.382 156.586 304.042 154.677 306.867 157.929C308.067 159.272 308.561 160.898 308.561 162.594C308.42 166.695 307.643 170.724 306.019 174.471C305.807 174.895 305.454 175.39 305.101 175.673C304.325 176.45 303.336 176.45 302.63 175.531C302.206 175.107 301.995 174.542 301.712 173.976C300.724 171.785 299.806 169.522 298.958 167.189C298.393 165.493 297.97 163.867 297.829 161.958C298.04 161.251 298.182 160.332 298.464 159.484ZM298.04 221.34C298.182 221.482 298.182 221.552 298.252 221.552L298.04 221.34Z" fill="white"/>
<path d="M415.04 209.04L414.263 194.123C414.263 193.911 414.122 193.558 414.122 193.204V191.083L413.557 172.279L412.992 150.082C412.992 149.728 412.851 149.445 412.851 149.092V146.193C412.639 140.185 415.393 136.508 420.759 134.529C423.443 133.539 426.62 132.762 430.221 132.196L436.011 131.277L440.036 131.065C445.12 130.924 450.274 131.277 455.57 132.62C460.371 133.822 464.113 136.65 467.008 140.538L470.115 143.648C471.033 144.567 471.81 145.557 472.586 146.618C475.481 150.93 477.388 155.737 478.235 160.403C478.871 163.725 479.224 167.189 479.224 170.3C479.224 172.279 479.082 174.4 478.659 176.733C477.317 184.156 474.634 191.154 469.691 196.951L468.774 197.941C468.632 198.082 468.632 198.082 468.632 198.153C471.386 203.384 472.939 208.474 474.069 213.281L476.541 223.956C477.176 227.278 477.741 230.742 478.306 233.923L478.659 235.479L479.789 240.71C480 241.841 480.212 243.255 480.212 244.386C480.212 248.133 478.235 251.385 474.422 252.586C472.728 253.152 470.892 253.505 469.127 253.576C467.714 253.718 465.667 253.717 464.255 253.717C461.289 253.717 458.818 252.798 457.052 251.031L452.18 246.153C451.263 245.376 450.415 244.457 449.709 243.467C449.285 247.921 447.167 250.112 442.295 251.385L436.505 252.728L434.175 253.293H433.751L433.893 253.435L431.563 253.859C428.315 254.212 425.914 253.505 424.219 251.879L419.983 247.638C417.794 246.295 416.452 243.962 415.958 240.498C415.817 239.72 415.746 238.518 415.746 237.175C415.746 236.963 415.605 236.822 415.605 236.751V236.186C415.393 233.075 415.252 228.975 415.181 225.723V224.026C415.04 223.39 415.04 222.259 415.04 221.835V209.04ZM420.548 221.906C420.548 222.542 420.548 223.249 420.689 223.885C420.83 227.915 420.901 231.873 421.112 235.903C421.254 237.246 421.254 238.589 421.466 239.932C421.677 242.407 423.019 243.396 425.49 243.184L427.255 242.831C428.173 242.619 428.95 242.265 429.797 242.195L435.446 240.851C438.129 240.215 439.118 238.943 439.118 236.186V225.087C439.259 217.947 439.259 210.878 438.341 203.738C438.341 202.96 438.2 202.041 438.341 201.263C438.553 199.92 439.471 199.072 440.883 198.718C441.872 198.506 443.213 199.143 443.849 200.132C444.202 200.768 444.484 201.475 444.766 202.112L447.238 211.584C447.803 213.705 448.014 215.826 448.579 217.947C450.133 223.39 451.333 228.975 452.604 234.489C452.957 236.256 453.381 238.024 454.016 239.72C454.652 241.841 456.346 243.043 458.676 243.043C460.089 243.043 461.642 243.043 463.125 242.901C464.466 242.76 465.879 242.548 467.22 242.124C468.632 241.7 469.409 240.427 469.409 238.872C469.409 238.094 469.268 237.175 469.056 236.398L467.926 230.954C467.291 227.208 466.585 223.32 465.808 219.431L463.337 208.898C462.207 204.091 460.795 199.425 458.465 195.113C458.253 194.76 458.041 194.335 457.9 193.911C457.476 192.568 457.476 191.154 458.465 190.023C459.029 189.387 459.453 188.68 460.018 188.114C464.466 182.883 466.797 176.804 467.926 170.229C468.844 165.422 468.35 160.685 467.503 155.878C466.726 151.637 465.172 147.678 462.701 144.002C460.583 141.033 457.688 138.983 454.157 138.134C449.497 136.933 444.837 136.579 440.036 136.721L436.505 136.933L430.857 137.71C428.103 138.134 425.42 138.841 422.736 139.831C419.842 140.962 418.288 142.942 418.429 146.052C418.429 147.395 418.571 148.738 418.571 150.082L419.135 172.279C419.277 178.5 419.488 184.721 419.7 190.942C419.7 191.932 419.841 192.922 419.841 194.053L420.618 208.827V221.906H420.548ZM451.192 174.259C450.627 176.945 449.074 178.924 446.673 180.126C444.766 181.116 442.931 181.893 440.883 182.247C438.412 182.671 437.211 181.823 436.858 179.348L436.505 176.45C436.082 170.795 435.517 165.139 434.74 159.554C434.599 158.565 434.599 157.434 434.599 156.444C434.74 155.101 435.375 154.252 436.576 153.687C437.988 153.051 439.541 153.121 441.095 153.263C446.108 153.828 449.638 156.373 451.051 161.039C451.474 162.453 451.616 164.149 451.686 165.563C451.827 165.987 451.827 166.482 451.827 167.472C451.757 169.381 451.757 171.784 451.192 174.259ZM446.32 167.048V166.836L446.108 164.079H445.473V164.432H445.614L446.179 169.522C446.179 169.381 446.32 169.169 446.32 169.098C446.179 168.391 446.179 167.613 446.32 167.048Z" fill="white"/>
<path d="M476.964 220.916L477.388 216.109L478.729 197.658L479.718 189.245L480.283 184.014L480.918 178.924C481.059 177.015 481.271 174.683 481.483 172.703L482.118 166.341V164.715C482.118 164.361 482.118 163.584 482.26 163.018C482.471 158.353 482.824 153.121 483.177 148.597C483.319 147.183 483.531 145.274 483.954 144.355C484.943 140.679 487.626 137.993 491.298 137.215L493.063 136.791C496.381 136.438 499.912 136.226 504.148 136.226C505.349 136.226 507.396 136.226 508.597 136.367C510.715 136.508 513.398 137.003 515.234 137.781C517.917 138.771 520.106 140.467 521.448 142.659L525.119 146.335C524.978 146.335 524.978 146.193 524.908 146.193L525.119 146.335C526.249 147.678 527.026 149.021 527.591 150.859L527.802 151L528.72 154.747L529.85 161.534C530.627 166.341 531.545 171.643 532.18 176.45C532.533 179.207 532.604 182.317 532.816 185.145L533.169 189.387L533.522 194.052C533.663 196.032 533.734 197.729 533.875 198.153C534.087 200.344 534.44 202.606 534.793 204.798C535.216 208.474 535.781 212.433 536.134 216.109C536.346 219.997 536.77 223.744 537.264 227.632L537.688 231.732C538.041 234.842 538.111 238.377 538.323 241.417L538.464 241.558C538.676 243.255 538.464 244.032 538.323 245.022C538.323 245.164 538.182 245.446 538.182 245.588C537.547 249.476 535.428 251.809 532.533 252.728C531.545 253.152 529.991 253.364 528.862 253.364H527.661C525.543 253.223 523.425 253.152 521.095 252.445C519.4 251.879 517.988 251.102 516.858 249.971L513.116 246.224C510.786 244.881 509.232 242.76 508.456 239.862C508.244 238.872 507.891 236.892 507.82 235.761C507.396 231.732 506.902 226.995 506.62 222.754L506.408 220.987L506.055 225.228C505.914 226.43 505.843 227.702 505.843 228.339L505.631 239.013C505.631 239.649 505.419 241.346 505.278 242.76C504.501 247.85 501.606 250.536 496.381 250.748H491.58C488.05 250.395 485.79 249.617 484.378 248.203L480.283 244.103C477.035 242.406 476.258 239.296 476.258 234.772H476.399C476.258 234.56 476.258 234.418 476.258 234.206L476.964 220.916ZM481.695 234.913C481.695 237.882 482.471 239.72 486.355 240.003H490.591C492.922 239.862 494.122 238.801 494.475 236.539C494.616 235.549 494.687 234.418 494.687 233.428L494.899 222.754C494.899 221.623 495.04 220.421 495.11 219.219L496.664 204.02L497.582 195.042C497.723 194.406 497.794 193.699 498.005 193.063C498.358 192.285 498.923 191.508 499.912 191.295C500.83 190.942 501.677 190.871 502.666 190.871C503.795 190.871 504.854 191.013 505.984 191.225C508.526 191.79 509.303 192.568 509.868 195.113C510.009 195.466 510.009 195.678 510.009 196.032L511.351 213.917C511.492 215.826 511.562 217.664 511.774 219.502C512.198 224.804 512.692 230.177 513.186 235.408C513.328 236.539 513.539 237.599 513.751 238.73C514.175 240.427 515.305 241.487 516.999 242.053C518.976 242.619 521.095 242.619 523.213 242.689C523.778 242.689 524.554 242.477 525.119 242.265C526.249 241.912 527.096 241.134 527.308 239.932C527.449 238.943 527.661 237.953 527.52 236.963C527.308 233.641 527.096 230.318 526.743 226.995C526.178 221.693 525.543 216.462 525.19 211.089C524.766 205.222 523.778 199.284 523.072 193.416C522.719 190.447 522.648 187.407 522.295 184.438C521.942 180.197 521.871 176.026 521.306 171.784C520.318 164.644 519.118 157.433 517.988 150.364C517.776 149.374 517.564 148.385 517.211 147.395C516.646 145.416 515.446 144.073 513.469 143.366C511.704 142.729 509.938 142.234 508.173 142.164C503.513 141.81 498.853 142.164 494.193 142.588L492.639 142.941C490.874 143.295 489.744 144.355 489.32 146.052C488.967 147.042 488.756 148.031 488.756 149.162C488.403 153.97 488.12 158.847 487.838 163.725C487.697 164.856 487.838 165.917 487.696 167.048L486.496 179.631L485.296 190.094L484.307 198.435L482.966 216.745L482.542 221.411L481.765 234.63C481.695 234.489 481.624 234.701 481.695 234.913ZM499.276 159.342C499.418 158.423 499.7 157.646 500.194 156.868C501.607 154.959 504.431 155.101 505.631 157.08C506.055 157.858 506.408 158.777 506.549 159.554L507.467 166.341L507.82 170.794C507.82 171.784 507.82 172.703 507.467 173.693C507.255 174.329 506.832 175.036 506.125 175.248C504.713 175.884 503.16 176.238 501.607 175.884C500.265 175.531 499.488 174.753 499.276 173.552C499.135 172.632 499.065 171.784 499.065 170.865V166.553L499.276 159.342Z" fill="white"/>
<path d="M564.59 143.012L565.013 143.578C565.931 140.043 568.756 137.569 573.204 136.721H579.841C581.042 136.721 582.948 136.721 584.148 136.862C587.255 137.216 589.797 138.841 591.35 141.386L595.093 145.133C596.505 146.547 597.564 148.668 597.988 151.142L598.553 157.787V165.351C598.553 167.826 598.553 170.229 598.694 172.703C598.694 175.814 598.694 178.924 598.835 181.893C598.835 184.863 598.976 187.973 598.976 190.872L599.4 212.998V215.331L599.047 234.206V240.427C598.906 240.993 598.906 241.558 598.411 243.326L598.553 243.467C597.635 246.719 595.587 248.91 591.915 249.688L592.057 249.829C591.492 250.042 590.856 250.254 589.726 250.254C587.961 250.395 585.066 250.395 583.513 250.254C582.171 250.254 580.971 250.042 579.629 249.617C578.429 249.193 577.299 248.486 576.381 247.638L572.286 243.538C570.521 242.407 568.967 240.639 568.261 238.236C567.908 237.105 567.838 235.762 567.696 234.206V222.33C567.838 217.806 567.555 212.009 567.273 207.131C567.132 205.717 567.061 203.455 567.061 202.112L566.849 197.587L566.637 193.558C566.425 193.699 566.214 193.699 566.002 193.699V215.897C566.143 218.866 566.002 221.694 565.861 224.451C565.719 226.43 565.719 227.915 565.719 229.894C565.861 232.863 565.861 237.105 565.861 240.145C565.861 241.064 565.861 241.841 565.649 243.114C564.872 246.86 562.895 249.547 558.517 250.324C555.552 250.961 552.445 250.961 549.55 250.749C547.008 250.395 545.101 249.617 543.76 248.274L539.665 244.174C536.981 242.619 535.64 239.932 535.216 236.186V233.853L534.793 211.655V205.293C534.793 204.939 534.651 204.657 534.651 204.162V197.375C534.651 197.022 534.793 196.598 534.793 196.173V189.599C534.793 188.821 534.934 188.044 534.934 187.266L535.146 181.611V180.692C535.287 177.157 535.357 173.34 535.569 169.946C535.781 166.482 535.781 163.513 535.781 160.049C535.781 157.292 535.781 154.465 535.64 151.708V147.254C535.852 142.588 538.323 138.912 542.489 137.003C544.819 136.014 547.714 135.236 550.468 134.671C552.233 134.458 553.786 134.529 555.269 134.883C557.811 135.66 559.788 137.357 560.847 139.336L564.59 143.012ZM588.244 185.499C588.244 179.49 588.032 173.41 588.032 167.26C587.891 162.382 588.032 157.363 587.891 152.344C587.749 150.364 587.679 148.244 587.467 146.264C587.114 144.073 585.772 142.517 583.795 142.376C580.335 142.164 576.946 142.235 573.557 142.235H573.345C571.651 142.588 570.662 143.578 570.45 145.204C570.238 145.981 570.238 146.759 570.238 147.678L570.662 155.313C570.803 157.787 570.874 160.12 570.874 162.453C570.733 165.705 569.673 166.977 566.425 166.977H560.635C560 166.977 559.294 166.836 558.658 166.624C557.529 166.412 556.893 165.705 556.681 164.644C556.47 163.867 556.328 162.948 556.47 162.17C556.47 160.474 556.611 158.848 556.611 157.08C556.752 153.334 556.752 149.516 556.611 145.769C556.611 144.85 556.47 143.861 556.258 143.012C556.046 141.669 555.269 140.679 553.928 140.326C553.151 140.114 552.233 139.973 551.456 140.114C549.126 140.538 546.937 141.104 544.678 142.093C542.489 143.083 541.218 144.85 541.147 147.325V151.566C541.359 157.787 541.359 164.008 541.006 170.229C540.653 175.885 540.583 181.54 540.371 187.195C540.371 190.165 540.229 193.204 540.229 196.103C540.229 197.658 540.088 199.072 540.088 200.556C540.088 202.112 540.229 203.667 540.229 205.222V211.443L540.653 233.641V235.62C540.865 238.094 541.995 239.508 544.395 239.862C546.867 240.074 549.409 240.074 551.809 239.508C553.575 239.155 554.493 238.094 554.775 236.398C554.916 235.762 554.916 235.055 554.916 234.418C554.916 231.096 554.916 227.773 554.775 224.451C554.775 219.785 555.128 215.119 554.987 210.453C554.846 203.243 554.987 196.103 554.987 188.892C554.987 187.902 555.128 186.771 555.199 185.782C555.552 184.085 556.328 183.307 557.952 183.095C561.271 182.53 564.59 182.53 567.908 182.671C569.673 182.813 570.803 183.873 571.227 185.64C571.439 186.206 571.58 186.842 571.58 187.408C571.792 190.659 572.004 193.841 572.145 197.163C572.357 200.274 572.357 203.526 572.568 206.636C572.921 211.867 573.133 216.957 572.992 222.189V233.499C573.133 234.489 573.204 235.62 573.416 236.61C573.769 237.812 574.616 238.589 575.746 239.084C576.523 239.296 577.158 239.438 577.935 239.438C579.841 239.579 581.606 239.579 583.513 239.438C583.937 239.438 584.501 239.226 585.066 239.084C586.408 238.872 587.255 237.953 587.608 236.61C587.82 235.691 587.961 234.701 588.032 233.853V228.551L588.385 209.676V207.484L588.244 185.499Z" fill="white"/>
<path d="M624.678 143.225L625.455 144.002C626.231 140.538 628.561 137.781 634.422 137.428C636.328 137.286 639.223 137.428 641.059 137.569C642.401 137.569 644.378 137.781 645.578 137.993C648.473 138.417 650.803 139.902 652.357 142.093L656.805 146.406C657.935 147.537 658.711 148.951 659.276 150.859C659.7 152.273 659.7 153.616 659.841 154.96L660.053 155.101C660.971 162.524 661.748 170.441 662.03 177.864C662.242 182.954 662.454 188.327 662.454 193.417C662.454 198.294 662.454 203.526 661.889 208.05L661.465 210.948C661.253 211.867 661.112 213.069 661.041 214.271L660.688 217.735C660.547 219.432 660.335 221.27 660.124 222.825C659.559 227.066 658.429 231.379 656.805 235.903H656.664C654.334 242.69 646.214 249.547 638.658 250.537C637.317 250.678 635.975 250.749 634.987 250.961L633.222 251.173C631.315 251.173 628.561 250.819 627.008 250.537C621.924 249.123 617.546 246.507 614.157 242.972L611.474 240.427C609.003 238.519 606.814 236.186 604.907 233.641C601.236 228.622 599.259 222.896 598.27 216.887V217.028C597.493 212.574 597.281 207.272 597.352 202.819C597.352 200.698 597.211 198.719 597.14 196.598L596.717 187.125C596.717 184.58 596.575 181.894 596.505 179.207V178.147C596.505 177.723 596.646 177.369 596.646 176.945V168.603C596.646 167.048 596.787 165.705 596.646 164.079C596.434 161.11 596.293 157.08 596.293 154.111V151.284C596.293 150.365 596.434 149.375 596.434 148.385C596.434 141.599 599.541 137.498 607.873 138.135C609.073 138.276 610.062 138.276 611.121 138.276C611.545 138.276 612.109 138.417 612.674 138.417H614.228L617.899 138.771C621.147 139.336 623.477 140.892 624.678 143.225ZM633.575 185.923V191.508C633.786 200.274 632.586 208.828 631.244 217.382C630.891 219.078 630.609 220.704 629.691 222.189C628.491 224.521 626.231 224.734 624.395 222.966C624.042 222.542 623.76 222.189 623.477 221.764C623.054 220.845 622.701 219.997 622.348 219.078C621.712 216.604 621.571 214.2 621.571 211.726C621.43 208.757 621.359 205.646 621.359 202.536C621.218 198.506 621.147 194.548 621.218 190.518C621.359 187.266 621.359 184.156 621.218 180.975C621.006 175.955 621.006 171.078 620.865 166.058V163.867C620.512 159.343 620.3 154.747 620.512 150.082V148.102C620.3 145.982 619.17 144.78 617.052 144.356L613.592 144.002C611.474 143.861 609.356 144.002 607.379 143.79C603.354 143.437 601.942 145.345 601.942 148.456C601.8 153.546 601.8 158.706 602.154 163.796C602.365 167.472 602.154 171.148 602.154 174.895C602.154 176.309 602.012 177.793 602.012 179.349C602.154 182.035 602.224 184.651 602.224 187.266L602.648 196.598C602.789 198.789 602.86 201.051 602.86 203.243C602.648 207.697 603.001 212.009 603.636 216.321C604.554 221.411 606.178 226.289 609.285 230.53C612.745 235.196 616.911 238.519 622.63 240.074C624.184 240.427 625.737 240.71 627.432 240.64C629.126 240.427 630.75 240.074 632.515 240.003C638.376 239.226 644.519 233.994 646.284 228.763C647.696 224.734 648.756 220.775 649.25 216.745C649.673 213.847 649.815 211.09 650.168 208.333C650.38 206.212 650.803 204.091 651.086 201.97C651.65 197.305 651.65 192.639 651.65 187.973C651.65 182.883 651.439 177.723 651.227 172.633C650.874 165.21 650.097 157.717 649.25 150.294C649.109 149.163 649.038 148.102 648.685 147.042C648.12 144.85 646.778 143.719 644.448 143.507C643.248 143.295 641.977 143.154 640.706 143.154C638.729 143.012 636.681 142.942 634.704 143.012C631.386 143.154 630.68 145.133 630.68 147.254L630.891 149.728L631.527 155.03C632.092 159.908 632.657 164.786 633.08 169.805C633.292 173.269 633.433 176.662 633.504 180.126V185.923H633.575ZM659.982 155.172C659.982 155.313 660.124 155.313 660.124 155.313L659.982 155.172Z" fill="white"/>
<path d="M665.42 244.245C663.301 243.043 661.748 241.134 661.112 238.165C660.901 237.175 660.689 235.196 660.689 234.065C660.548 230.742 660.477 225.864 660.477 222.754L660.124 217.311C660.124 212.079 660.124 206.636 659.983 201.405L659.63 193.204C659.488 190.447 659.418 187.407 659.418 185.004C659.277 183.237 659.418 180.479 659.559 178.641C659.771 173.41 659.983 167.543 660.124 162.453C660.336 157.928 660.477 153.475 660.548 149.021V148.456C660.548 147.89 660.548 147.324 660.689 146.688C661.324 143.154 663.937 140.043 667.467 139.124C670.15 138.346 673.328 137.922 676.223 137.993C679.753 138.346 682.295 139.902 683.99 142.517L687.732 146.193C688.932 147.395 689.85 149.092 690.415 151.213C691.192 154.747 691.192 157.575 691.192 160.332V161.11C691.192 161.463 691.051 161.675 691.051 162.029L691.404 172.491V175.955C691.404 177.086 691.545 178.147 691.545 179.278C691.545 182.247 691.545 185.287 691.686 188.256L692.039 202.606C692.039 203.172 692.181 204.303 692.251 205.293L692.604 208.403C692.604 209.605 692.745 211.302 692.745 212.433C692.745 213.847 692.604 215.19 692.745 216.533C694.652 216.321 696.629 216.533 698.606 217.098C700.724 218.017 702.701 219.431 703.69 221.552L707.361 225.087C708.35 226.076 709.127 227.42 709.55 228.975L710.115 232.085C710.468 234.842 710.68 238.306 710.892 241.063C710.892 241.841 710.892 242.619 710.751 243.608C710.186 248.274 707.291 251.172 702.56 251.738C700.795 251.879 698.535 251.879 696.77 251.879H694.299C693.522 251.879 692.534 251.738 691.757 251.738L677.564 251.172C676.223 251.172 674.881 251.031 673.822 250.748C672.057 250.183 670.503 249.547 669.374 248.274L665.42 244.245ZM680.389 154.677C680.389 151.99 680.389 149.375 679.824 146.759C679.259 144.638 678.059 143.507 675.94 143.436C673.469 143.295 671.139 143.79 668.809 144.426C667.255 144.78 666.338 145.981 666.126 147.537C665.985 147.961 665.985 148.456 665.985 148.88C665.843 153.404 665.773 157.858 665.561 162.453C665.42 167.896 665.208 173.339 664.996 178.924C664.855 180.833 664.784 182.671 664.855 184.58C664.996 190.164 665.278 195.678 665.42 201.263C665.561 206.495 665.561 211.796 665.561 217.028L665.914 222.33C665.914 226.076 666.055 229.965 666.126 233.853C666.126 234.842 666.267 235.832 666.479 236.822C666.832 238.518 667.891 239.367 669.444 239.791C670.362 240.003 671.21 240.144 671.986 240.144L686.179 240.71C687.873 240.71 689.427 240.851 691.051 240.851C692.816 240.851 694.581 240.851 696.346 240.71C698.323 240.498 699.594 239.296 699.806 237.246C699.947 236.68 699.947 236.044 699.947 235.479C699.736 232.58 699.524 229.682 699.171 226.783C699.171 226.006 699.03 225.228 698.818 224.451C698.465 223.249 697.617 222.471 696.488 221.976C695.358 221.623 694.299 221.552 693.169 221.764L687.52 222.4H685.755C684.343 222.259 683.284 221.623 682.789 220.28C682.578 219.855 682.436 219.29 682.366 218.866C682.225 217.098 682.013 215.331 682.013 213.564C681.801 210.1 681.801 206.707 681.66 203.101C681.519 200.98 681.236 198.86 681.095 196.739L680.742 182.53C680.601 179.56 680.601 176.45 680.601 173.41C680.601 171.219 680.459 168.957 680.459 166.765L680.106 156.302C680.248 155.808 680.389 155.242 680.389 154.677Z" fill="white"/>
<path d="M789.903 154.04C792.092 158.14 793.575 162.806 794.422 167.401C795.411 172.208 795.764 177.298 795.835 181.964C795.976 183.661 795.835 185.499 795.835 187.195V192.851C795.835 198.718 795.623 204.515 795.058 209.958V210.1L794.069 221.906C793.716 225.44 792.869 229.682 791.527 233.428C789.55 238.73 786.091 243.396 781.854 247.072C778.606 249.759 775.076 251.172 771.333 251.879C767.591 252.798 763.143 253.293 759.118 253.435C757.141 253.576 754.316 253.576 752.339 253.576C750.786 253.576 748.809 253.576 747.044 253.435C746.479 253.293 744.502 253.081 743.937 252.869C742.03 252.445 740.618 251.526 739.418 250.324L735.676 246.648C733.699 245.446 732.216 243.326 731.227 241.063C730.239 238.589 729.462 235.832 729.462 233.146V224.026C729.462 223.461 729.321 223.037 729.321 222.471V220.916C729.18 218.936 729.109 215.826 729.109 214.059L728.897 205.929L728.473 189.245C728.332 183.661 728.262 178.005 728.262 172.491C728.262 171.501 728.262 169.946 728.403 168.956V167.755C728.403 167.331 728.544 166.836 728.544 166.412V150.435C728.544 149.799 728.685 149.092 728.685 148.455V142.8C728.685 137.71 731.015 134.882 735.817 133.327C739.277 132.55 743.231 132.125 746.691 132.196C746.902 132.196 747.044 132.337 747.256 132.337H749.233L757.141 132.55C766.108 133.186 774.087 136.579 780.654 142.659C781.572 143.578 782.348 144.567 782.984 145.557L786.444 148.88C787.785 150.506 788.915 152.273 789.903 154.04ZM785.173 176.662C785.031 171.996 784.749 167.331 783.831 162.806C783.054 158.706 781.854 154.676 779.806 151C778.888 149.445 778.041 148.031 776.7 146.759C771.121 141.457 764.484 138.629 756.858 138.064L749.091 137.852C748.103 137.852 747.185 137.71 746.196 137.71C743.09 137.498 740.124 137.852 737.229 138.629C735.111 139.265 734.122 140.538 734.122 142.729C734.122 145.204 733.981 147.749 733.981 150.294V166.27C733.981 168.25 733.769 170.37 733.769 172.35C733.769 177.934 733.91 183.449 733.981 189.033L734.405 205.717L734.617 213.917C734.617 217.24 734.828 220.562 734.97 223.885V233.004C734.97 234.984 735.534 236.892 736.311 238.801C736.947 240.498 738.076 241.558 739.983 242.053C740.618 242.265 741.395 242.406 742.101 242.477C745.843 242.689 749.656 242.619 753.399 242.477C757.282 242.336 761.024 241.841 764.837 241.063C767.803 240.498 770.627 239.367 773.028 237.387C776.558 234.277 779.453 230.53 781.148 225.935C782.348 222.612 783.054 219.078 783.337 215.614L784.325 203.808C784.961 197.163 785.243 190.589 785.102 183.943C785.173 181.611 785.243 179.136 785.173 176.662ZM768.297 209.605C768.156 211.726 767.732 213.705 767.097 215.685C766.32 217.664 764.978 219.219 763.354 220.492C760.812 222.4 758.059 223.249 754.952 223.744H754.528C752.339 223.885 750.998 222.754 750.645 220.421C750.504 218.866 750.292 217.452 750.292 215.897C749.939 210.807 749.868 205.646 749.656 200.556L749.021 186.771C748.88 184.085 749.021 181.469 748.88 178.783L748.103 168.674L747.538 157.787C747.538 157.151 747.679 156.373 747.75 155.595C748.173 154.04 749.162 153.121 750.857 152.838C754.105 152.202 758.482 153.757 760.53 157.292C761.66 159.413 762.507 161.746 763.072 164.079C763.496 165.987 763.849 167.825 764.202 169.734C764.837 173.269 765.614 176.874 766.391 180.409C766.955 183.307 767.309 186.206 767.52 189.175C767.732 190.942 767.944 192.709 768.085 194.477L768.509 203.667H768.368V209.605H768.297ZM762.86 203.808L762.437 194.689C762.295 193.275 762.225 191.932 762.013 190.447C762.013 190.094 761.872 189.882 761.872 189.528C761.66 186.63 761.307 183.731 760.883 181.398C760.106 177.864 759.33 174.188 758.694 170.653L758.482 169.734L758.835 173.764L759.612 184.085V188.185C759.612 189.387 759.612 190.518 759.753 191.861L760.389 205.858L760.601 210.877C760.601 212.433 760.742 213.847 760.742 215.402L761.942 213.634C762.366 212.079 762.719 210.524 762.86 209.534V203.808Z" fill="white"/>
<path d="M820.689 143.225L821.465 144.002C822.242 140.538 824.572 137.781 830.433 137.428C832.339 137.286 835.234 137.428 837.07 137.569C838.411 137.569 840.389 137.781 841.589 137.993C844.484 138.417 846.814 139.902 848.367 142.093L852.816 146.406C853.945 147.537 854.722 148.951 855.287 150.859C855.711 152.273 855.711 153.616 855.852 154.96L856.064 155.101C856.982 162.524 857.758 170.441 858.041 177.864C858.253 182.954 858.464 188.327 858.464 193.417C858.464 198.294 858.464 203.526 857.9 208.05L857.476 210.948C857.264 211.867 857.123 213.069 857.052 214.271L856.699 217.735C856.558 219.432 856.346 221.27 856.134 222.825C855.569 227.066 854.44 231.379 852.816 235.903H852.674C850.344 242.69 842.224 249.547 834.669 250.537C833.328 250.678 831.986 250.749 830.998 250.961L829.232 251.173C827.326 251.173 824.572 250.819 823.019 250.537C817.935 249.123 813.557 246.507 810.168 242.972L807.485 240.427C805.013 238.519 802.825 236.186 800.918 233.641C797.246 228.622 795.269 222.896 794.281 216.887V217.028C793.504 212.574 793.292 207.272 793.363 202.819C793.363 200.698 793.222 198.719 793.151 196.598L792.727 187.125C792.727 184.58 792.586 181.894 792.516 179.207V178.147C792.516 177.723 792.657 177.369 792.657 176.945V168.603C792.657 167.048 792.798 165.705 792.657 164.079C792.445 161.11 792.304 157.08 792.304 154.111V151.284C792.304 150.365 792.445 149.375 792.445 148.385C792.445 141.599 795.552 137.498 803.884 138.135C805.084 138.276 806.072 138.276 807.132 138.276C807.555 138.276 808.12 138.417 808.685 138.417H810.238L813.91 138.771C817.087 139.336 819.418 140.892 820.689 143.225ZM829.515 185.923V191.508C829.727 200.274 828.526 208.828 827.185 217.382C826.832 219.078 826.549 220.704 825.631 222.189C824.431 224.521 822.171 224.734 820.336 222.966C819.983 222.542 819.7 222.189 819.418 221.764C818.994 220.845 818.641 219.997 818.288 219.078C817.652 216.604 817.511 214.2 817.511 211.726C817.37 208.757 817.299 205.646 817.299 202.536C817.158 198.506 817.088 194.548 817.158 190.518C817.299 187.266 817.299 184.156 817.158 180.975C816.946 175.955 816.946 171.078 816.805 166.058V163.867C816.452 159.343 816.24 154.747 816.452 150.082V148.102C816.24 145.982 815.11 144.78 812.992 144.356L809.532 144.002C807.414 143.861 805.296 144.002 803.319 143.79C799.294 143.437 797.882 145.345 797.882 148.456C797.741 153.546 797.741 158.706 798.094 163.796C798.306 167.472 798.094 171.148 798.094 174.895C798.094 176.309 797.952 177.793 797.952 179.349C798.094 182.035 798.164 184.651 798.164 187.266L798.588 196.598C798.729 198.789 798.8 201.051 798.8 203.243C798.588 207.697 798.941 212.009 799.576 216.321C800.494 221.411 802.118 226.289 805.225 230.53C808.685 235.196 812.851 238.519 818.57 240.074C820.124 240.427 821.677 240.71 823.372 240.64C825.066 240.427 826.69 240.074 828.456 240.003C834.316 239.226 840.459 233.994 842.224 228.763C843.637 224.734 844.696 220.775 845.19 216.745C845.614 213.847 845.755 211.09 846.108 208.333C846.32 206.212 846.743 204.091 847.026 201.97C847.591 197.305 847.591 192.639 847.591 187.973C847.591 182.883 847.379 177.723 847.167 172.633C846.814 165.21 846.037 157.717 845.19 150.294C845.049 149.163 844.978 148.102 844.625 147.042C844.06 144.85 842.719 143.719 840.388 143.507C839.188 143.295 837.917 143.154 836.646 143.154C834.669 143.012 832.622 142.942 830.644 143.012C827.326 143.154 826.62 145.133 826.62 147.254L826.832 149.728L827.467 155.03C828.032 159.908 828.597 164.786 829.02 169.805C829.232 173.269 829.373 176.662 829.444 180.126V185.923H829.515ZM855.922 155.172C855.922 155.313 856.064 155.313 856.064 155.313L855.922 155.172Z" fill="white"/>
<path d="M855.499 220.916L855.923 216.109L857.264 197.658L858.253 189.245L858.818 184.014L859.453 178.924C859.594 177.015 859.806 174.683 860.018 172.703L860.654 166.341V164.715C860.654 164.361 860.654 163.584 860.795 163.018C861.007 158.353 861.36 153.121 861.713 148.597C861.854 147.183 862.066 145.274 862.489 144.355C863.478 140.679 866.161 137.993 869.833 137.215L871.598 136.791C874.917 136.438 878.447 136.226 882.684 136.226C883.884 136.226 885.932 136.226 887.132 136.367C889.25 136.508 891.933 137.003 893.769 137.781C896.452 138.771 898.641 140.467 899.983 142.659L903.655 146.335C903.513 146.335 903.513 146.193 903.443 146.193L903.655 146.335C904.784 147.678 905.561 149.021 906.126 150.859L906.338 151L907.256 154.747L908.385 161.534C909.162 166.341 910.08 171.643 910.715 176.45C911.069 179.207 911.139 182.317 911.351 185.145L911.704 189.387L912.057 194.052C912.198 196.032 912.269 197.729 912.41 198.153C912.622 200.344 912.975 202.606 913.328 204.798C913.752 208.474 914.317 212.433 914.67 216.109C914.881 219.997 915.305 223.744 915.799 227.632L916.223 231.732C916.576 234.842 916.647 238.377 916.858 241.417L917 241.558C917.211 243.255 917 244.032 916.858 245.022C916.858 245.164 916.717 245.446 916.717 245.588C916.082 249.476 913.963 251.809 911.069 252.728C910.08 253.152 908.527 253.364 907.397 253.364H906.196C904.078 253.223 901.96 253.152 899.63 252.445C897.935 251.879 896.523 251.102 895.393 249.971L891.651 246.224C889.321 244.881 887.767 242.76 886.991 239.862C886.779 238.872 886.426 236.892 886.355 235.761C885.932 231.732 885.437 226.995 885.155 222.754L884.943 220.987L884.59 225.228C884.449 226.43 884.378 227.702 884.378 228.339L884.166 239.013C884.166 239.649 883.955 241.346 883.813 242.76C883.037 247.85 880.142 250.536 874.917 250.748H870.115C866.585 250.395 864.325 249.617 862.913 248.203L858.818 244.103C855.57 242.406 854.793 239.296 854.793 234.772H854.934C854.793 234.56 854.793 234.418 854.793 234.206L855.499 220.916ZM860.301 234.913C860.301 237.882 861.077 239.72 864.961 240.003H869.197C871.527 239.862 872.728 238.801 873.081 236.539C873.222 235.549 873.293 234.418 873.293 233.428L873.504 222.754C873.504 221.623 873.646 220.421 873.716 219.219L875.27 204.02L876.188 195.042C876.329 194.406 876.399 193.699 876.611 193.063C876.964 192.285 877.529 191.508 878.518 191.295C879.436 190.942 880.283 190.871 881.271 190.871C882.401 190.871 883.46 191.013 884.59 191.225C887.132 191.79 887.909 192.568 888.474 195.113C888.615 195.466 888.615 195.678 888.615 196.032L889.956 213.917C890.098 215.826 890.168 217.664 890.38 219.502C890.804 224.804 891.298 230.177 891.792 235.408C891.933 236.539 892.145 237.599 892.357 238.73C892.781 240.427 893.91 241.487 895.605 242.053C897.582 242.619 899.7 242.619 901.819 242.689C902.384 242.689 903.16 242.477 903.725 242.265C904.855 241.912 905.702 241.134 905.914 239.932C906.055 238.943 906.267 237.953 906.126 236.963C905.914 233.641 905.702 230.318 905.349 226.995C904.784 221.693 904.149 216.462 903.796 211.089C903.372 205.222 902.384 199.284 901.677 193.416C901.324 190.447 901.254 187.407 900.901 184.438C900.548 180.197 900.477 176.026 899.912 171.784C898.924 164.644 897.723 157.433 896.594 150.364C896.382 149.374 896.17 148.385 895.817 147.395C895.252 145.416 894.052 144.073 892.075 143.366C890.309 142.729 888.544 142.234 886.779 142.164C882.119 141.81 877.459 142.164 872.798 142.588L871.245 142.941C869.48 143.295 868.35 144.355 867.926 146.052C867.573 147.042 867.361 148.031 867.361 149.162C867.008 153.97 866.726 158.847 866.443 163.725C866.302 164.856 866.444 165.917 866.302 167.048L865.102 179.631L863.902 190.094L862.913 198.435L861.571 216.745L861.148 221.411L860.371 234.63C860.3 234.489 860.159 234.701 860.301 234.913ZM877.812 159.342C877.953 158.423 878.235 157.646 878.729 156.868C880.142 154.959 882.966 155.101 884.166 157.08C884.59 157.858 884.943 158.777 885.084 159.554L886.002 166.341L886.355 170.794C886.355 171.784 886.355 172.703 886.002 173.693C885.79 174.329 885.367 175.036 884.661 175.248C883.248 175.884 881.695 176.238 880.142 175.884C878.8 175.531 878.023 174.753 877.812 173.552C877.67 172.632 877.6 171.784 877.6 170.865V166.553L877.812 159.342Z" fill="white"/>
</svg>
