<svg width="528" height="352" viewBox="0 0 528 352" fill="none" xmlns="http://www.w3.org/2000/svg">
<path d="M0.161961 222.142C5.66862 222.142 10.6894 222.142 16.358 222.142C16.358 243.197 16.358 263.928 16.358 284.983C25.4278 284.983 34.0117 284.983 43.0815 284.983C43.0815 264.252 43.0815 243.359 43.0815 221.818C48.2643 221.818 52.9611 221.656 57.496 221.98C58.3058 221.98 59.4396 223.437 59.7635 224.247C60.0874 225.219 59.9255 226.515 59.9255 227.648C59.9255 266.519 59.9255 305.39 59.9255 344.26C59.9255 351.224 59.9254 351.224 52.7992 351.224C49.8839 351.224 46.9686 351.224 43.5674 351.224C43.4055 348.957 43.2435 347.013 43.2435 345.232C43.2435 327.74 43.0815 310.248 43.4055 292.757C43.4055 288.384 42.1098 287.25 37.8988 287.412C30.9345 287.736 23.9702 287.574 16.52 287.574C16.52 308.791 16.52 329.522 16.52 350.9C10.8514 350.9 5.50666 350.9 0 350.9C0.161961 307.981 0.161961 265.385 0.161961 222.142Z" fill="white"/>
<path d="M298.657 286.275C298.657 266.516 298.819 246.757 298.657 226.997C298.657 223.11 299.791 221.977 303.678 221.977C312.1 222.3 320.522 221.977 328.944 221.977C344.654 222.139 358.421 235.419 359.23 251.777C359.878 265.382 359.392 278.987 359.392 292.591C359.392 301.337 359.554 310.083 359.392 318.829C359.069 337.617 345.464 351.059 326.676 351.221C319.226 351.221 311.776 350.897 304.326 351.383C299.629 351.707 298.657 349.764 298.657 345.553C298.981 335.673 298.819 325.793 298.819 315.914C298.495 306.034 298.495 296.155 298.657 286.275C298.495 286.275 298.657 286.275 298.657 286.275ZM315.987 224.082C315.987 265.868 315.987 307.006 315.987 348.144C334.289 350.735 341.253 344.905 342.063 326.927C342.063 326.765 342.063 326.603 342.063 326.441C342.063 299.718 342.225 272.994 341.901 246.433C341.901 241.736 340.443 236.877 338.823 232.342C337.366 227.807 333.803 224.73 328.782 224.244C324.733 223.758 320.522 224.082 315.987 224.082Z" fill="white"/>
<path d="M121.472 1.55002C132.485 1.55002 143.175 0.902182 153.864 1.71199C168.117 2.68375 180.264 15.4786 180.912 30.2171C181.559 44.1457 181.236 58.0743 181.236 72.0029C181.236 80.5868 181.398 89.1708 181.236 97.7547C181.074 117.028 167.631 130.309 148.358 130.471C140.421 130.471 132.485 130.471 124.549 130.471C121.796 130.471 120.824 129.661 120.824 126.908C120.986 85.9315 120.986 44.9555 120.986 3.97943C120.986 3.33159 121.31 2.68375 121.472 1.55002ZM137.992 127.879C141.717 127.879 144.632 127.879 147.71 127.879C155.646 127.879 159.857 124.964 161.962 117.352C163.096 113.141 163.906 108.768 163.906 104.557C164.068 79.4531 164.068 54.3492 164.068 29.2453C164.068 25.8441 163.744 22.443 163.258 19.0418C160.667 3.49355 153.378 1.2261 137.83 3.97943C137.992 45.1174 137.992 86.0935 137.992 127.879Z" fill="white"/>
<path d="M115.964 222.465C115.964 224.57 115.964 226.514 115.964 228.457C115.964 259.878 115.802 291.298 116.125 322.719C116.125 328.711 117.421 334.866 118.879 340.858C120.336 346.365 124.385 348.956 129.082 348.794C134.427 348.632 137.666 345.393 138.638 340.696C140.096 334.38 141.229 327.901 141.229 321.585C141.553 290.488 141.391 259.392 141.391 228.295C141.391 226.514 141.391 224.732 141.391 222.627C146.898 222.627 151.919 222.627 157.587 222.627C157.749 223.922 157.911 225.38 157.911 226.838C157.911 258.258 158.073 289.679 158.073 321.099C158.073 335.028 149.813 346.203 137.18 350.09C125.195 353.815 111.753 349.604 104.788 338.753C101.873 334.218 99.4435 328.387 99.4435 323.042C98.9576 290.326 99.2816 257.61 99.2816 224.894C99.2816 224.246 99.4435 223.599 99.6055 222.627C104.788 222.465 109.971 222.465 115.964 222.465Z" fill="white"/>
<path d="M198.078 350.415C198.078 307.819 198.078 265.061 198.078 221.818C203.423 221.818 208.606 221.656 213.626 221.98C214.922 222.142 216.38 224.085 217.028 225.543C225.935 244.492 234.843 263.604 243.751 282.715C247.8 291.299 251.687 299.883 255.736 308.467C256.222 308.467 256.708 308.305 257.032 308.305C257.032 279.638 257.032 250.971 257.032 222.142C257.518 222.142 258.004 222.142 258.651 222.142C258.651 265.061 258.651 307.819 258.651 350.739C258.166 350.9 257.68 351.062 257.032 351.224C238.406 310.896 219.619 270.73 200.993 230.402C200.508 230.402 200.184 230.564 199.698 230.564C199.698 270.406 199.698 310.41 199.698 350.253C199.212 350.415 198.726 350.415 198.078 350.415Z" fill="white"/>
<path d="M80.9795 129.822C79.8458 130.146 79.3599 130.308 78.874 130.308C64.4595 131.28 64.4595 131.28 61.0584 117.351C58.7909 108.119 56.6854 98.7257 54.256 89.494C53.9321 88.0363 52.1505 85.9308 51.0168 85.9308C40.8133 85.6069 30.6098 85.7689 20.0823 85.7689C16.5192 100.669 12.956 115.408 9.39291 130.146C8.90703 129.984 8.42115 129.984 7.93526 129.822C7.93526 129.012 7.7733 128.041 7.93526 127.231C17.6529 86.9026 27.2086 46.2505 36.7643 5.59832C37.5741 2.03519 39.0317 0.57754 42.5949 1.06342C43.8905 1.22538 45.1862 1.22538 46.4819 1.06342C49.7211 0.57754 51.1788 1.87323 51.9886 5.2744C60.2486 40.9058 68.6705 76.3751 76.9305 112.006C78.2262 117.837 79.6839 123.668 80.9795 129.822ZM37.0882 16.1258C36.7643 16.1258 36.6023 16.1258 36.2784 16.2877C31.0956 38.6383 25.9129 60.8269 20.5682 83.5014C31.4196 83.5014 41.947 83.5014 52.9603 83.5014C47.6156 60.665 42.2709 38.3144 37.0882 16.1258Z" fill="white"/>
<path d="M454.629 350.415C455.277 347.014 455.925 343.612 456.734 340.211C465.642 302.636 474.388 265.061 483.296 227.325C483.782 225.381 484.754 222.304 485.887 222.142C489.612 221.656 493.661 221.818 497.387 222.466C498.196 222.628 498.682 225.219 499.006 226.839C506.294 258.097 513.583 289.518 520.871 320.776C523.138 330.494 525.406 340.211 527.997 350.901C522.49 350.901 517.47 351.063 512.449 350.739C511.639 350.739 510.505 348.795 510.181 347.499C507.104 335.19 504.189 323.043 501.436 310.734C500.788 307.495 499.492 306.199 495.929 306.361C487.669 306.685 479.409 306.685 471.149 306.361C467.748 306.199 466.29 307.495 465.642 310.734C462.889 323.205 459.812 335.676 456.896 347.985C456.734 348.795 456.248 349.605 455.925 350.577C455.601 350.577 455.115 350.577 454.629 350.415ZM484.106 237.528C483.782 237.528 483.458 237.528 483.134 237.528C477.951 259.717 472.768 281.905 467.424 304.256C478.599 304.256 488.965 304.256 499.978 304.256C494.471 281.581 489.288 259.555 484.106 237.528Z" fill="white"/>
<path d="M296.39 3.33011C289.426 3.33011 283.272 3.33011 277.117 3.33011C277.117 2.68227 277.117 2.19639 277.117 1.54855C295.419 1.38658 313.558 1.54855 331.86 1.54855C331.86 2.19639 331.86 2.68227 331.86 3.33011C325.705 3.33011 319.551 3.33011 312.911 3.33011C312.911 45.9258 312.911 87.8736 312.911 130.145C307.242 130.145 302.059 130.145 296.39 130.145C296.39 88.0355 296.39 46.0877 296.39 3.33011Z" fill="white"/>
<path d="M220.918 1.39062C226.263 1.39062 231.283 1.39062 236.952 1.39062C236.952 44.1482 236.952 86.9059 236.952 129.987C231.769 129.987 226.587 129.987 220.918 129.987C220.918 87.2298 220.918 44.4722 220.918 1.39062Z" fill="white"/>
<path d="M398.754 222.141C404.099 222.141 409.281 222.141 414.788 222.141C414.95 223.922 415.112 225.542 415.112 226.999C415.112 266.842 415.112 306.522 415.274 346.364C415.274 350.413 413.978 351.385 410.253 351.223C406.528 350.899 402.965 351.223 398.916 351.223C398.754 307.98 398.754 265.384 398.754 222.141Z" fill="white"/>
<path d="M388.38 129.99C383.035 129.99 378.014 129.99 372.508 129.99C372.508 87.2319 372.508 44.6362 372.508 1.55469C377.691 1.55469 382.873 1.55469 388.38 1.55469C388.38 44.3123 388.38 87.0699 388.38 129.99Z" fill="white"/>
</svg>
