<svg width="443" height="367" viewBox="0 0 443 367" fill="none" xmlns="http://www.w3.org/2000/svg">
<g clip-path="url(#clip0)">
<path d="M96.8461 156.457C96.8461 144.659 96.8461 133.587 96.8461 121.124C87.5363 124.936 79.496 128.203 71.4558 131.47C63.1133 134.858 54.9521 138.548 46.4282 141.331C43.7078 142.239 39.9597 141.452 37.1185 140.363C28.2923 136.975 22.5493 130.199 18.8616 121.669C18.0757 119.793 17.6526 116.768 18.5594 115.255C30.3477 96.5001 42.0151 77.6237 54.4685 59.3524C61.2997 49.3092 71.6372 44.6506 83.8487 42.049C109.541 36.5434 135.113 30.1303 160.382 22.7492C180.453 16.8806 199.919 9.01541 219.626 1.81578C229.782 -1.81429 243.445 -0.60427 250.215 10.6489C250.88 11.738 253.419 12.464 254.991 12.222C274.941 9.49942 294.769 6.05086 314.779 4.11482C319.555 3.63081 325.056 7.50288 329.772 10.1044C332.915 11.7985 335.152 12.0405 338.416 10.2254C342.648 7.92639 348.391 4.29632 351.898 5.56685C359.091 8.2289 366.164 12.8875 371.484 18.3931C378.255 25.4112 379.948 34.4864 379.404 44.8926C377.711 76.7162 382.97 108.177 386.839 139.698C387.202 142.42 387.504 145.204 387.867 148.108C391.978 150.044 396.27 152.101 400.623 154.037C418.94 162.446 431.091 176.785 439.615 194.633C440.643 196.751 441.852 199.05 442.093 201.288C445.6 233.354 440.159 262.878 417.912 287.805C407.756 299.118 395.001 306.318 381.096 311.521C371.908 314.97 363.021 312.489 354.497 308.496C352.986 307.831 350.507 306.863 349.721 307.468C345.369 311.037 341.379 308.738 337.449 307.105C316.593 298.271 295.737 289.317 274.518 280.242C273.188 284.235 271.555 289.68 269.44 294.944C262.548 312.005 249.43 322.895 233.289 330.579C230.024 332.092 226.82 333.725 223.616 335.298C222.528 335.843 220.956 336.992 220.412 336.629C214.125 332.757 209.349 338.263 203.848 338.989C202.699 339.11 201.067 339.291 200.342 338.626C193.873 333.12 188.191 336.69 182.75 340.259C178.579 342.982 175.133 342.619 171.324 339.836C165.642 335.722 159.778 331.789 153.611 327.433C154.035 326.888 153.37 327.493 153.007 328.28C146.962 341.288 135.657 346.854 122.539 349.818C109.058 352.843 99.3247 348.729 92.3121 336.75C88.7454 330.579 85.4204 324.287 81.7933 317.632C79.1938 322.835 76.5943 327.493 74.4784 332.334C68.4331 346.067 58.5188 355.747 44.9774 362.161C39.053 364.944 33.4308 366.517 26.8414 366.88C7.91963 368.029 -3.44555 351.694 1.3907 334.209C6.71056 314.788 14.2672 296.033 20.252 276.854C24.6047 262.818 27.99 248.418 31.7986 234.201C35.9698 218.591 40.0807 202.982 44.1915 187.373C44.6751 185.437 45.4005 183.501 45.4005 181.504C45.5819 164.382 56.0403 154.521 70.3072 148.592C74.5389 146.837 80.7656 148.834 85.7227 150.225C89.4708 151.496 93.0375 154.339 96.8461 156.457ZM118.005 260.216C117.4 260.277 116.856 260.337 116.252 260.337C111.597 243.215 106.277 226.215 102.468 208.911C100.473 199.776 98.2365 190.095 102.347 180.657C102.831 179.629 102.77 177.451 102.105 176.967C91.9494 169.646 82.4582 161.055 69.2795 159.421C64.8664 158.877 63.1133 160.631 63.476 165.169C63.7178 167.891 63.2342 170.796 62.5692 173.458C59.1234 187.01 55.9194 200.562 51.9295 213.933C40.5038 251.746 28.7759 289.499 17.1689 327.312C16.6249 329.066 16.2621 330.942 15.839 332.757C25.8742 334.33 41.2293 326.707 45.4005 318.479C54.8917 299.602 64.3223 280.666 73.9344 261.789C75.083 259.49 76.8966 257.433 79.0124 254.469C87.899 275.826 96.302 296.033 104.765 316.361C111.053 314.97 116.433 314.123 121.511 312.489C123.687 311.763 126.347 309.525 126.952 307.407C133.662 284.356 145.874 264.391 160.564 245.696C161.47 244.546 162.075 243.034 162.8 241.703C163.344 242.126 163.889 242.55 164.493 242.973C164.493 244.123 164.433 245.272 164.493 246.361C165.218 264.088 165.763 281.815 166.79 299.542C166.911 301.901 169.208 305.532 171.203 306.076C175.919 307.468 183.234 300.026 183.294 295.004C183.475 282.662 183.354 270.259 184.261 257.978C186.196 232.386 189.339 207.036 202.578 184.166C203.425 182.714 203.304 180.173 202.639 178.479C199.919 171.582 196.775 164.927 193.934 158.09C192.301 154.097 190.125 154.642 187.586 157.001C184.563 159.905 181.662 162.93 178.7 165.895C161.47 183.198 144.544 200.623 134.871 223.795C129.733 236.258 123.687 248.116 118.005 260.216ZM275.848 72.2391C275.666 72.3601 276.452 71.6946 277.359 71.3316C290.961 65.826 300.754 55.5408 309.943 44.7111C313.389 40.6575 316.351 35.9384 318.588 31.1588C322.276 23.1727 317.137 14.9445 309.278 15.731C294.225 17.3041 279.112 19.0586 264.12 21.1761C255.112 22.4467 246.226 25.3507 237.158 25.9557C227.485 26.5607 228.15 26.2582 222.951 34.6074C217.51 43.3196 217.752 50.7612 220.17 60.8649C223.495 74.7197 222.709 89.724 222.528 104.244C222.347 119.975 220.593 135.705 219.989 151.496C219.808 156.396 220.775 161.418 221.923 166.258C223.314 172.187 228.331 173.942 233.651 174.97C238.971 175.999 238.911 171.037 240.664 168.375C242.719 165.229 243.928 161.478 245.923 158.332C252.634 147.926 254.326 136.794 252.452 124.573C251.183 116.344 251.304 107.874 251.666 99.5251C251.908 93.596 257.168 91.539 261.883 95.1691C265.026 97.5891 267.868 100.554 270.225 103.7C278.387 114.529 286.125 125.722 294.346 136.552C298.517 142.118 303.112 147.442 307.948 152.403C309.641 154.097 312.845 155.186 315.263 155.005C325.721 154.218 336.18 152.827 346.638 151.677C349.721 151.314 352.804 150.83 355.585 150.467C328.804 123.968 302.447 98.2546 275.848 72.2391ZM121.33 233.051C122.357 232.991 123.325 232.93 124.352 232.87C125.803 228.816 127.375 224.823 128.705 220.769C134.327 203.95 139.949 187.131 145.39 170.19C146.599 166.439 147.989 162.507 147.929 158.695C147.627 146.111 146.478 133.587 146.055 121.003C145.571 106.241 145.511 91.4785 145.511 76.7162C145.511 73.8727 145.692 71.2106 149.863 70.0611C166.428 65.5235 182.871 60.7439 199.133 55.2988C203.485 53.8468 208.382 50.4587 210.498 46.5866C216.301 35.9384 220.714 24.5642 225.611 13.432C226.095 12.343 225.853 10.8909 225.913 9.86243C202.155 18.2721 178.82 26.9843 155.123 34.7889C128.765 43.5011 102.105 51.1847 74.4784 54.9358C71.5162 55.3593 67.7682 57.0533 66.1359 59.4129C56.1007 73.8121 46.5491 88.5744 36.9371 103.276C36.393 104.123 36.2721 105.273 35.6071 107.209C61.7228 99.1016 84.5741 84.8234 111.053 79.6808C111.597 83.6133 112.08 86.5174 112.443 89.4819C115.526 114.711 118.246 140.121 114.74 165.35C112.383 182.049 112.866 198.445 115.345 214.84C116.252 221.011 119.274 226.941 121.33 233.051ZM339.323 274.01C335.092 267.476 331.041 262.636 328.563 257.131C323.666 246.301 315.263 239.767 304.986 234.685C297.792 231.115 290.9 226.82 282.86 222.221C286.548 220.285 289.087 218.712 291.747 217.623C299.122 214.598 306.86 212.299 313.873 208.609C317.802 206.552 322.094 202.801 323.605 198.868C329.167 184.227 337.449 171.522 347.605 159.784C348.331 158.998 348.754 157.969 349.359 157.062C349.056 156.517 348.814 156.033 348.512 155.489C343.071 157.546 337.207 158.937 332.25 161.841C312.784 173.216 293.621 185.074 274.276 196.69C271.132 198.566 267.747 200.018 264.422 201.651C263.999 201.288 263.576 200.986 263.213 200.623C265.873 193.423 268.654 186.223 271.193 178.963C271.858 177.088 272.341 174.547 271.616 172.913C269.56 168.375 267.082 163.959 264.241 159.966C258.377 151.859 252.452 152.645 248.281 161.72C247.797 162.809 247.374 163.959 247.072 165.108C237.762 198.142 228.09 231.055 219.264 264.209C216.12 276.007 214.911 288.349 212.553 301.901C217.571 299.481 220.896 297.727 224.342 296.275C234.679 291.919 240.845 284.417 243.263 273.284C245.44 263.181 248.523 253.198 251.364 243.215C253.903 234.201 255.959 233.293 263.817 238.617C282.8 251.504 303.475 260.7 324.935 268.565C329.046 270.078 333.459 271.772 339.323 274.01ZM415.131 204.374C416.22 194.209 411.746 183.803 404.129 174.486C385.086 151.193 345.55 155.912 336.119 184.348C332.673 194.754 328.744 205.16 326.991 215.869C324.271 232.386 328.139 248.116 337.51 262.092C345.913 274.555 360.3 279.516 374.87 275.765C383.938 273.405 391.011 268.142 396.875 261.063C410.114 245.212 414.769 226.578 415.131 204.374ZM211.223 123.847C206.75 126.085 202.76 128.263 198.649 130.139C192.181 133.164 185.652 136.128 179.062 138.911C177.914 139.395 176.16 139.698 175.072 139.153C171.506 137.399 171.506 125.359 175.072 123.484C181.783 119.914 188.735 116.828 195.264 113.017C197.077 111.988 198.528 109.387 199.012 107.209C199.616 104.184 199.193 100.917 199.193 96.6211C188.977 100.13 179.485 103.397 169.692 106.725C169.39 104.607 169.39 103.397 169.087 102.248C167.758 96.5001 169.208 93.112 175.616 91.418C182.689 89.5424 189.46 86.3964 196.352 83.6133C212.07 77.2607 209.228 80.4673 208.503 63.9505C208.503 63.4059 208.201 62.8614 207.536 60.8044C200.1 62.4984 192.543 63.8295 185.168 65.947C176.342 68.488 167.878 72.0576 159.052 74.4777C150.407 76.8372 149.38 77.6842 150.226 86.7594C151.919 104.668 153.491 122.576 155.365 140.424C156.211 148.592 157.722 156.759 159.113 166.379C176.1 157.727 191.757 150.225 206.931 141.876C216.18 137.096 216.241 135.1 211.223 123.847ZM320.946 53.4838C322.457 68.4275 324.27 86.5174 326.024 104.607C327.233 117.131 339.323 132.014 351.353 135.644C356.371 137.157 358.124 135.705 357.52 130.562C356.613 123.242 355.343 115.921 354.618 108.6C351.837 80.5883 347.243 52.6972 349.842 24.3827C350.447 17.5461 346.578 15.247 339.928 18.0906C325.721 24.0802 320.704 32.6109 320.946 53.4838ZM188.13 276.975C188.493 283.146 188.735 289.317 189.339 295.428C189.762 299.905 192.06 302.991 196.956 302.991C201.672 302.991 204.634 300.994 205.722 295.912C208.684 281.876 211.586 267.779 215.334 253.924C221.379 231.66 227.969 209.516 234.437 187.312C236.13 181.444 234.981 178.721 229.843 178.298C220.533 177.572 206.327 186.647 203.123 195.48C193.631 221.858 188.856 249.023 188.13 276.975Z" fill="black"/>
<path d="M118.006 260.215C123.628 248.176 129.733 236.257 134.872 223.975C144.544 200.864 161.471 183.379 178.7 166.076C181.663 163.111 184.564 160.026 187.587 157.182C190.066 154.822 192.302 154.278 193.935 158.271C196.776 165.108 199.919 171.763 202.64 178.66C203.305 180.293 203.426 182.895 202.579 184.347C189.34 207.216 186.136 232.566 184.262 258.158C183.355 270.44 183.476 282.843 183.295 295.185C183.234 300.207 175.92 307.648 171.204 306.257C169.209 305.652 166.972 302.082 166.791 299.723C165.763 281.996 165.219 264.269 164.494 246.542C164.433 245.393 164.494 244.243 164.494 243.154C163.95 242.731 163.406 242.307 162.801 241.884C162.076 243.215 161.532 244.667 160.564 245.877C145.935 264.572 133.663 284.537 126.953 307.588C126.348 309.705 123.688 311.944 121.512 312.67C116.434 314.364 111.114 315.15 104.766 316.542C96.3029 296.214 87.8999 276.006 79.0133 254.649C76.8974 257.674 75.0838 259.671 73.9352 261.97C64.3837 280.846 54.953 299.783 45.4014 318.66C41.2906 326.888 25.9355 334.511 15.8398 332.938C16.263 331.062 16.6257 329.247 17.1698 327.493C28.8372 289.558 40.5651 251.806 51.9908 213.993C56.0411 200.622 59.2451 187.07 62.6305 173.517C63.2955 170.855 63.7791 167.951 63.5373 165.229C63.1746 160.631 64.9277 158.937 69.3408 159.481C82.5196 161.115 92.0107 169.706 102.167 177.026C102.832 177.51 102.832 179.688 102.409 180.717C98.2978 190.155 100.535 199.835 102.53 208.971C106.338 226.274 111.597 243.275 116.313 260.397C116.857 260.276 117.461 260.215 118.006 260.215Z" fill="white"/>
<path d="M275.846 72.2378C302.446 98.2533 328.803 124.027 355.765 150.405C352.984 150.768 349.901 151.252 346.818 151.615C336.36 152.825 325.901 154.156 315.443 154.943C313.025 155.124 309.76 154.035 308.128 152.341C303.232 147.38 298.698 142.056 294.526 136.49C286.365 125.66 278.567 114.528 270.405 103.638C268.048 100.492 265.207 97.5273 262.063 95.1073C257.348 91.4772 252.088 93.5342 251.846 99.4633C251.484 107.813 251.363 116.283 252.632 124.511C254.506 136.732 252.814 147.864 246.103 158.27C244.048 161.417 242.899 165.168 240.844 168.314C239.091 170.976 239.151 175.937 233.831 174.908C228.512 173.88 223.494 172.125 222.104 166.196C220.955 161.356 219.988 156.334 220.169 151.434C220.774 135.643 222.527 119.913 222.708 104.182C222.889 89.6622 223.675 74.6579 220.35 60.8031C217.932 50.6994 217.69 43.3183 223.131 34.5456C228.33 26.136 227.665 26.499 237.338 25.8939C246.406 25.2889 255.232 22.3849 264.3 21.1144C279.292 18.9968 294.405 17.3028 309.458 15.6692C317.378 14.8222 322.516 23.1109 318.768 31.097C316.531 35.9371 313.569 40.5957 310.123 44.6493C300.934 55.479 291.141 65.7642 277.539 71.2698C276.511 71.6933 275.725 72.2983 275.846 72.2378ZM282.98 42.0478C282.677 40.9587 282.436 39.8697 282.133 38.7807C279.353 39.0227 276.511 38.8412 273.912 39.5067C267.746 41.2007 261.761 43.3788 255.655 45.1938C247.494 47.6139 245.378 52.454 249.549 61.1661C260.733 54.8135 271.856 48.4004 282.98 42.0478Z" fill="white"/>
<path d="M121.328 233.052C119.272 227.002 116.25 221.012 115.343 214.781C112.864 198.385 112.441 181.989 114.739 165.291C118.305 140.001 115.524 114.651 112.441 89.4223C112.079 86.4577 111.595 83.5537 111.051 79.6211C84.5724 84.7637 61.7212 99.042 35.6055 107.149C36.2705 105.213 36.3914 104.064 36.9354 103.217C46.6079 88.5148 56.0991 73.813 66.1343 59.3532C67.7665 56.9937 71.5146 55.2996 74.4768 54.8761C102.104 51.1856 128.764 43.4414 155.121 34.7898C178.758 26.9851 202.093 18.2729 225.912 9.86328C225.851 10.8918 226.093 12.3438 225.609 13.4329C220.713 24.5651 216.3 35.9393 210.496 46.5875C208.38 50.4596 203.484 53.8476 199.131 55.2997C182.869 60.7448 166.365 65.5243 149.862 70.0619C145.69 71.2115 145.509 73.8735 145.509 76.7171C145.57 91.4793 145.63 106.242 146.053 121.004C146.416 133.588 147.625 146.112 147.927 158.696C147.988 162.508 146.597 166.44 145.388 170.191C139.947 187.071 134.325 203.891 128.703 220.77C127.373 224.824 125.801 228.817 124.351 232.871C123.323 232.931 122.356 232.992 121.328 233.052Z" fill="white"/>
<path d="M339.324 274.009C333.46 271.771 329.108 270.077 324.695 268.443C303.294 260.638 282.559 251.382 263.577 238.495C255.718 233.171 253.662 234.139 251.123 243.093C248.343 253.076 245.259 263.058 243.023 273.162C240.605 284.294 234.438 291.736 224.101 296.153C220.655 297.605 217.33 299.359 212.312 301.779C214.67 288.166 215.879 275.885 219.023 264.087C227.849 230.932 237.521 198.02 246.831 164.986C247.133 163.837 247.557 162.687 248.04 161.598C252.211 152.523 258.196 151.736 264 159.843C266.902 163.897 269.32 168.314 271.375 172.791C272.101 174.424 271.617 176.965 270.952 178.841C268.473 186.101 265.693 193.301 262.972 200.5C263.395 200.863 263.818 201.166 264.181 201.529C267.446 199.895 270.891 198.443 274.035 196.568C293.38 184.951 312.544 173.093 332.01 161.719C336.967 158.815 342.831 157.484 348.271 155.366C348.574 155.911 348.815 156.395 349.118 156.939C348.513 157.847 348.09 158.875 347.365 159.662C337.269 171.399 328.926 184.104 323.365 198.746C321.853 202.739 317.561 206.429 313.632 208.486C306.619 212.177 298.881 214.476 291.506 217.501C288.786 218.59 286.307 220.163 282.619 222.099C290.66 226.697 297.551 230.993 304.745 234.562C314.962 239.645 323.425 246.179 328.322 257.008C330.982 262.635 335.032 267.475 339.324 274.009Z" fill="white"/>
<path d="M415.13 204.375C414.768 226.64 410.113 245.274 396.934 261.065C391.07 268.144 383.997 273.407 374.929 275.767C360.36 279.518 345.972 274.557 337.569 262.094C328.139 248.118 324.27 232.387 327.05 215.871C328.803 205.162 332.733 194.695 336.179 184.35C345.609 155.914 385.206 151.195 404.188 174.488C411.745 183.805 416.219 194.211 415.13 204.375ZM347.846 226.821C349.116 232.387 349.539 238.377 351.836 243.459C357.337 255.62 371.725 257.495 379.282 247.15C386.173 237.712 391.251 227.305 393.126 215.689C394.637 206.19 394.274 196.631 387.745 188.948C378.677 178.299 368.158 176.847 359.816 189.311C352.259 200.564 349.237 213.209 347.846 226.821Z" fill="white"/>
<path d="M211.225 123.845C216.242 135.098 216.182 137.095 206.872 142.177C191.698 150.526 176.041 158.028 159.054 166.68C157.663 157.06 156.152 148.953 155.306 140.725C153.432 122.817 151.86 104.908 150.167 87.0605C149.321 77.9853 150.349 77.1383 158.993 74.7787C167.82 72.3587 176.343 68.7891 185.109 66.2481C192.424 64.1305 200.041 62.7995 207.477 61.1055C208.081 63.1625 208.384 63.707 208.444 64.2515C209.169 80.7683 212.011 77.5618 196.293 83.9144C189.462 86.6975 182.691 89.8435 175.558 91.7191C169.149 93.4131 167.699 96.8012 169.029 102.549C169.27 103.698 169.331 104.908 169.633 107.026C179.487 103.638 188.918 100.431 199.134 96.9222C199.134 101.218 199.618 104.485 198.953 107.51C198.53 109.627 197.018 112.229 195.205 113.318C188.615 117.069 181.724 120.215 175.013 123.785C171.447 125.66 171.447 137.7 175.013 139.454C176.041 139.938 177.794 139.696 179.003 139.212C185.593 136.369 192.122 133.465 198.59 130.44C202.761 128.262 206.812 126.084 211.225 123.845Z" fill="white"/>
<path d="M320.946 53.4834C320.704 32.6105 325.722 24.0799 339.928 18.0297C346.517 15.1862 350.447 17.5457 349.842 24.3219C347.243 52.6364 351.837 80.5274 354.618 108.539C355.344 115.921 356.613 123.181 357.52 130.501C358.185 135.644 356.371 137.096 351.354 135.584C339.263 131.953 327.172 117.07 326.024 104.546C324.271 86.4566 322.457 68.3667 320.946 53.4834Z" fill="white"/>
<path d="M188.129 276.976C188.854 248.964 193.63 221.799 203.182 195.481C206.386 186.648 220.592 177.573 229.902 178.299C234.98 178.722 236.189 181.445 234.496 187.313C228.028 209.457 221.378 231.6 215.393 253.925C211.645 267.78 208.743 281.877 205.781 295.913C204.693 300.995 201.731 302.992 197.015 302.992C192.119 302.992 189.822 299.906 189.398 295.429C188.794 289.318 188.552 283.147 188.129 276.976Z" fill="white"/>
<path d="M282.982 42.0503C271.858 48.4029 260.735 54.8161 249.551 61.2292C245.38 52.517 247.435 47.6769 255.657 45.2569C261.763 43.4418 267.748 41.2638 273.914 39.5698C276.513 38.8438 279.415 39.0253 282.135 38.8438C282.438 39.8723 282.679 40.9613 282.982 42.0503Z" fill="black"/>
<path d="M347.848 226.821C349.238 213.208 352.261 200.563 359.817 189.31C368.22 176.847 378.679 178.299 387.747 188.947C394.276 196.631 394.638 206.19 393.127 215.689C391.253 227.305 386.175 237.772 379.283 247.149C371.727 257.495 357.339 255.68 351.838 243.459C349.54 238.377 349.117 232.387 347.848 226.821Z" fill="black"/>
</g>
<defs>
<clipPath id="clip0">
<rect width="443" height="367" fill="white"/>
</clipPath>
</defs>
</svg>
