<svg width="559" height="201" viewBox="0 0 559 201" fill="none" xmlns="http://www.w3.org/2000/svg">
<path d="M558.042 121.762C558.042 120.264 557.542 118.765 557.043 117.516C556.293 115.518 555.044 114.269 553.296 114.019C552.297 113.519 551.297 113.269 550.298 113.02C546.551 112.27 543.054 112.77 539.307 113.519C539.307 113.519 539.307 113.519 539.058 113.519C535.561 113.769 533.063 114.019 533.063 114.019L227.318 142.995C227.068 142.995 226.818 142.995 226.569 142.995L213.579 144.244C213.579 144.244 213.579 144.244 213.33 144.244L57.21 158.981C56.7105 158.981 56.2109 158.732 55.7113 158.732C57.4598 156.983 58.9586 155.234 60.7071 153.486C64.9536 150.488 78.9419 138.998 92.6804 128.007L96.9269 124.76C106.419 117.016 115.162 109.772 119.908 106.026C121.157 105.026 122.406 104.027 123.655 103.028C129.4 99.0314 213.829 39.0814 220.324 32.8366C220.324 32.8366 220.324 32.8366 220.574 32.5868C221.073 32.0872 221.323 31.5877 221.573 31.3379C223.821 28.3404 224.82 24.5935 224.071 20.8466C224.071 20.0973 223.821 19.8475 223.821 19.8475C223.821 19.8475 223.821 19.5977 223.571 19.0981C223.321 18.3487 223.072 17.5993 222.822 16.85C222.822 16.85 222.822 16.6002 222.572 16.6002C222.322 16.1006 222.322 15.8508 222.322 15.601C221.073 12.6035 218.825 8.35706 215.328 4.36039L215.078 4.1106C211.831 0.363732 208.584 -0.635434 203.588 0.363732C201.589 0.613523 199.841 1.3629 199.092 1.61269C198.842 1.61269 198.592 1.86248 198.342 1.86248L133.147 13.1031C116.66 15.8508 100.174 18.0989 83.4381 17.0998C78.1925 16.85 72.9469 16.85 67.7013 17.0998C66.4523 17.0998 65.4532 17.3496 64.2042 17.3496H63.9544C63.205 17.3496 60.4573 17.8491 58.459 20.0973C56.7105 21.8458 55.7113 24.5935 55.7113 28.3404C55.7113 29.0897 55.7113 29.5893 55.7113 30.3387C55.9611 33.0864 56.4607 35.8341 57.21 38.0822V38.332C58.459 43.0781 60.7071 47.3245 63.7046 50.5718C63.9544 50.8216 63.9544 51.0714 64.2042 51.0714C64.2042 51.0714 63.9544 52.8199 67.9511 54.3187C71.1984 56.5668 74.4457 57.566 77.9427 57.0664C82.1892 56.5668 86.4356 55.8174 90.6821 55.3179C101.673 54.3187 117.41 52.0706 139.641 47.0747C140.391 47.0747 141.39 46.8249 142.139 46.8249C142.389 47.0747 142.139 47.3245 141.14 48.3237C136.894 51.571 132.647 55.0681 128.401 58.3153L60.2075 112.021C60.2075 112.021 0.2576 154.485 0.00780824 170.222C-0.241983 185.959 5.50322 197.449 16.9936 199.697C19.2417 200.197 23.4882 200.197 29.4832 199.947C30.2326 199.947 30.9819 199.947 31.9811 199.947C33.2301 199.947 34.479 199.697 35.9778 199.697C64.7038 198.199 123.155 191.954 209.333 183.461C210.332 183.461 211.331 183.461 212.331 183.211L304.504 173.969C309.749 173.469 314.745 172.97 319.991 172.47H321.24C321.739 172.47 322.239 172.47 322.988 172.22L329.483 171.721C334.728 171.221 339.974 170.971 345.469 171.221C351.714 169.223 358.459 170.722 364.953 168.973L365.203 168.723L413.163 164.727C417.409 164.477 421.906 163.977 426.152 163.727H426.402H426.652C428.4 163.727 445.136 163.478 473.612 159.98C475.361 159.98 477.109 159.731 479.108 159.731C479.857 159.481 480.607 159.231 481.356 158.981C495.094 157.233 511.331 154.485 529.316 150.738C529.566 150.738 529.815 150.738 529.815 150.738H530.065L554.295 145.493C556.044 145.243 557.292 143.744 557.542 142.245C557.542 137.249 558.791 128.257 558.042 121.762ZM545.053 138.249C537.059 141.746 528.067 142.495 519.574 143.994C498.092 147.99 476.36 151.238 454.628 152.986C421.156 155.734 387.684 159.481 354.212 161.729C332.23 163.228 310.499 165.975 288.517 166.975C265.286 168.224 242.056 171.97 218.575 173.219C200.84 174.219 183.355 176.467 165.62 177.716C141.64 179.214 117.41 181.712 93.4298 184.21C71.9477 186.458 50.4657 189.456 28.9836 192.204C21.2401 193.203 15.4949 191.954 12.2476 183.461C7.25176 170.222 7.00197 170.222 16.2443 161.479C16.7438 160.98 17.2434 160.73 17.743 160.23C18.2426 159.731 18.7422 159.481 19.2417 159.231C19.7413 158.732 20.2409 158.232 20.7405 157.732C21.2401 157.233 21.7397 156.733 22.2392 156.234C35.9778 141.496 51.7146 129.756 66.9519 117.266C70.9486 114.019 75.195 110.522 79.1917 107.025C81.9394 104.777 84.6871 102.528 87.4348 100.53C89.4331 99.0314 91.6813 97.2828 93.9294 96.0339C96.1775 94.5351 98.4256 93.0364 100.674 91.7874C103.172 88.5401 105.919 86.0422 108.917 83.5443C113.913 79.5476 119.658 76.0505 124.654 71.8041C135.145 63.3112 145.636 55.0681 156.377 46.8249C158.875 44.8266 161.373 42.8283 164.87 42.0789C164.87 38.8316 171.115 37.3329 168.867 34.0856C167.118 31.5877 162.872 33.8358 159.625 34.3354C142.389 37.5827 124.904 41.0797 107.668 44.327C98.1758 46.0756 88.434 47.5743 78.9419 48.3237C71.1984 49.0731 61.9561 33.586 65.2034 26.8416C66.4523 24.0939 68.9502 24.5935 70.9486 24.5935C79.6913 24.5935 88.434 24.3437 97.1767 24.5935C114.412 24.8433 131.398 21.596 148.384 19.0981C167.368 16.3504 186.352 13.6027 204.837 8.60685C205.586 8.35706 206.336 8.35706 207.085 8.60685C212.081 11.6043 214.079 17.0998 215.578 22.0956C216.827 26.0923 213.08 28.3404 209.583 30.3387C207.335 31.8375 204.837 33.0864 202.589 34.5852C195.594 39.0814 188.85 43.5777 181.856 48.0739C175.112 52.8199 168.117 57.566 161.373 62.5618C154.629 67.5576 147.884 72.3037 141.39 77.5493C137.143 81.0464 132.897 84.2937 128.65 87.7907C124.404 91.038 120.157 94.2853 115.661 97.5326C99.9244 110.522 84.1875 123.261 68.4507 136C63.205 140.247 57.9594 144.743 52.7138 148.99C45.7196 154.735 36.9769 158.232 32.2309 166.725C34.7288 168.973 37.2267 167.974 39.4749 167.974C69.6996 168.224 99.4248 163.228 129.65 161.729C152.63 160.48 175.361 157.982 198.092 155.984C230.316 153.236 262.539 151.737 294.762 147.491C299.508 146.742 304.254 146.742 309 146.242C344.22 143.494 379.691 141.496 414.911 137.999C439.641 135.751 464.62 134.752 489.349 131.005C506.835 128.507 524.32 126.259 541.556 121.263C544.553 120.513 549.549 118.265 549.799 123.511C549.799 128.757 551.797 135.251 545.053 138.249Z" fill="#F3F1E1"/>
<path d="M541.306 121.764C524.32 126.51 506.585 128.759 489.099 131.506C464.62 135.253 439.641 136.003 414.662 138.5C379.441 141.748 344.22 143.996 308.75 146.744C304.004 146.993 299.258 147.243 294.512 147.993C262.539 152.239 230.066 153.738 197.843 156.485C175.112 158.484 152.381 160.982 129.4 162.231C99.4247 163.729 69.4498 168.725 39.225 168.475C36.9769 168.475 34.2292 169.475 31.981 167.226C36.7271 158.734 45.4698 155.237 52.4639 149.491C57.7096 145.245 62.9552 140.749 68.2008 136.502C83.9377 123.513 99.6745 110.774 115.411 98.0343C113.913 94.5372 111.415 93.2882 108.917 92.7886C107.168 92.5389 105.42 92.5389 103.671 92.2891C102.922 92.2891 102.172 92.2891 101.423 92.2891C101.173 92.2891 100.674 92.2891 100.424 92.2891C98.1758 93.538 95.9276 95.0368 93.6795 96.5355C91.4314 98.0343 89.4331 99.533 87.185 101.032C84.4372 103.03 81.6895 105.278 78.9418 107.526C74.9452 110.774 70.6987 114.271 66.702 117.768C51.7146 130.257 35.7279 141.998 22.489 156.485C21.9894 156.985 21.4898 157.485 20.9902 157.984C20.4906 158.484 19.991 158.983 19.4915 159.483C18.9919 159.733 18.4923 160.232 17.9927 160.482C17.4931 160.732 16.9935 161.232 16.494 161.731C7.25168 170.474 7.50147 170.474 12.4973 183.713C15.4948 192.206 21.4898 193.455 29.2333 192.455C50.7154 189.708 72.1975 186.96 93.6795 184.462C117.66 181.964 141.639 179.466 165.869 177.968C183.604 176.719 201.09 174.47 218.825 173.471C242.056 172.222 265.286 168.475 288.767 167.226C310.748 165.978 332.48 163.23 354.462 161.981C387.934 159.733 421.406 155.986 454.878 153.238C476.86 151.49 498.342 148.242 519.824 144.246C528.317 142.747 537.059 141.998 545.302 138.5C552.047 135.503 550.298 129.008 550.048 124.262C549.299 118.517 544.303 120.765 541.306 121.764Z" fill="#2CB1BB"/>
<path d="M181.856 48.3224C188.85 43.8261 195.594 39.3299 202.588 34.8336C204.836 33.3349 207.334 31.8361 209.583 30.5872C213.08 28.5888 216.826 26.0909 215.578 22.344C213.829 17.3482 212.08 11.8528 207.085 8.85531C206.585 8.60552 205.586 8.60552 204.836 8.85531C186.352 13.8511 167.368 16.5988 148.384 19.3466C131.398 21.8445 114.662 25.0918 97.1764 24.842C88.4337 24.5922 79.691 24.842 70.9483 24.842C68.7001 24.842 66.452 24.3424 65.2031 27.0901C61.9558 34.0842 71.1981 49.3215 78.9416 48.5722C88.6835 47.8228 98.1755 46.324 107.668 44.5755C124.903 41.578 142.389 38.0809 159.624 34.5838C162.872 34.0842 167.118 31.8361 168.867 34.334C171.364 37.5813 165.12 38.8303 164.87 42.3274C168.367 42.5772 171.864 42.3274 175.361 42.827C178.359 43.3265 182.105 43.5763 181.856 48.3224Z" fill="#6DB3BC"/>
<path d="M270.033 93.2851C270.532 93.0353 271.282 93.0353 271.781 92.7856C274.029 92.0362 276.028 91.037 278.026 89.5383C279.025 88.7889 280.274 88.0395 281.273 87.0404C281.773 86.5408 282.273 86.291 282.522 85.7914C283.771 84.5424 284.77 83.0437 283.522 81.2951C282.273 79.5466 280.524 79.5466 278.775 80.296C273.78 82.0445 270.782 85.7914 267.285 89.5383C266.785 90.0379 266.536 91.2868 266.785 92.286C267.535 93.5349 268.784 93.5349 270.033 93.2851Z" fill="#F3F1E1"/>
<path d="M207.583 81.7954C200.838 74.3016 192.845 72.3033 185.601 76.5498C177.358 81.2958 170.614 88.0402 164.369 95.2841C156.625 104.277 156.376 113.769 163.12 124.01C167.366 130.755 173.611 133.252 180.355 129.506C184.352 127.257 188.099 125.259 191.346 121.762C193.844 118.765 196.342 118.765 199.34 122.262C206.084 130.005 209.581 130.005 218.823 125.759C224.319 123.261 229.814 120.513 234.061 116.766C239.806 111.77 243.303 113.269 247.3 118.765C253.045 127.008 259.04 128.506 268.032 124.01C274.527 120.763 280.522 116.766 286.267 112.27C291.013 108.523 293.511 108.773 296.509 114.268C301.504 123.76 306.001 124.76 315.493 119.764C318.49 118.265 321.488 116.017 323.986 113.769C327.483 110.771 330.73 110.771 333.228 114.768C337.225 121.512 342.97 120.763 348.965 118.265C356.708 114.768 363.952 110.521 370.447 105.026C374.943 101.279 378.19 100.78 381.687 106.525C388.682 117.016 395.426 118.515 406.417 112.27C409.164 110.771 411.662 108.523 414.16 106.525C420.905 101.029 423.153 101.029 428.398 108.023C431.146 111.271 433.144 111.021 435.393 108.023C438.14 104.277 440.638 100.28 443.386 96.2833C442.886 96.0335 442.387 95.7837 442.137 95.5339C441.637 95.2841 440.888 95.0343 440.388 94.7845C439.639 94.5347 438.89 94.0352 438.14 93.7854C436.142 93.2858 434.144 93.036 431.895 94.0352C428.898 95.2841 428.398 92.5364 428.149 90.2883C424.402 93.5356 420.405 96.5331 416.408 99.2808C412.162 102.028 407.915 104.277 403.169 105.775C400.172 106.775 396.675 108.023 394.177 105.276C391.429 102.528 393.677 99.7804 394.926 97.0327C396.925 91.787 399.672 88.29 406.167 88.0402C410.164 87.7904 414.41 85.5423 418.407 83.0443C431.895 74.3016 432.145 72.5531 421.404 61.5623C416.408 56.5665 412.162 56.3167 406.167 59.5639C395.926 65.0594 387.682 73.3025 383.186 83.2941C378.19 94.0352 369.697 99.5306 360.205 104.526C356.708 106.525 352.212 112.77 348.965 108.273C345.468 103.527 352.462 100.03 355.21 96.2833C362.953 86.5414 370.697 77.0493 378.69 67.5573L360.705 63.5606C359.456 64.8096 358.457 66.3083 357.458 67.5573C356.958 68.0569 356.708 68.8062 356.209 69.3058C347.966 78.5481 347.966 78.7979 338.973 70.5548C333.478 65.5589 328.232 63.3108 320.988 67.3075C308.499 74.3016 299.506 84.2933 293.011 97.2825C287.016 109.522 275.026 113.519 263.036 117.016C258.54 118.265 256.292 115.267 257.791 111.021C259.789 105.026 262.287 99.5306 270.031 98.7812C274.027 98.2816 278.274 96.5331 282.021 94.7845C295.759 87.5406 296.259 82.5448 285.268 71.8037C280.772 67.3075 276.525 66.8079 271.28 69.8054C260.788 76.0502 251.796 84.0435 246.8 95.2841C241.554 106.775 231.813 112.02 221.321 117.266C219.823 118.015 217.325 119.514 215.826 117.266C214.327 114.768 216.325 113.519 217.325 112.27C223.819 103.777 230.064 95.2841 237.058 87.041C240.305 83.2941 240.555 80.0468 236.808 76.7996C233.561 73.8021 229.814 71.5539 225.818 76.0502C224.069 78.0485 222.071 80.0469 220.322 82.0452C214.827 88.0402 213.328 88.29 207.583 81.7954ZM206.584 93.5356C201.088 106.275 192.595 116.267 179.356 121.762C178.607 122.012 177.858 122.262 177.108 122.262C173.361 122.012 170.364 120.263 172.612 116.017C178.607 104.526 187.849 95.7837 198.34 88.5398C200.339 87.2908 203.336 87.2908 205.584 88.7895C207.333 89.7887 207.333 91.787 206.584 93.5356ZM417.158 69.056C418.906 69.3058 419.656 70.5548 420.155 71.8037C419.156 76.3 414.91 78.0485 412.162 80.5464C409.914 82.295 407.166 82.7946 404.418 82.0452C403.919 82.0452 403.419 80.7962 403.419 80.2966C403.419 76.7996 413.661 68.5564 417.158 69.056ZM306.001 106.525C311.996 95.5339 320.738 86.5414 331.23 79.7971C333.727 78.2983 336.475 78.0485 338.973 80.0468C340.722 81.5456 340.971 83.2941 339.972 85.5423C333.977 97.2825 325.984 107.524 313.494 113.269C312.495 113.769 311.496 113.769 310.747 114.018C305.501 113.519 303.503 111.021 306.001 106.525ZM267.533 89.2891C271.03 85.792 274.027 81.7954 279.023 80.0468C280.772 79.5473 282.52 79.2975 283.769 81.046C285.018 82.7946 284.019 84.2933 282.77 85.5423C282.27 86.0418 281.771 86.2916 281.521 86.7912C280.522 87.7904 279.523 88.5398 278.274 89.2891C276.275 90.5381 274.277 91.787 272.029 92.5364C271.529 92.7862 270.78 92.7862 270.28 93.036C269.031 93.2858 267.783 93.2858 267.283 91.787C266.783 91.2875 267.033 90.0385 267.533 89.2891Z" fill="#4EB4BC"/>
<path d="M449.882 73.5529C454.878 72.5537 459.124 73.5529 460.873 79.0483C461.622 79.0483 462.371 78.5487 462.871 78.0491C463.87 77.2998 465.119 76.3006 466.618 77.5496C465.869 81.796 462.371 84.2939 459.874 87.2914C455.377 93.2864 455.128 98.7818 460.373 104.777C465.119 110.272 470.615 110.022 476.61 107.774C486.851 104.277 494.095 96.5337 501.838 89.7893C503.087 88.7902 505.086 87.791 503.337 85.5429C496.093 88.5404 490.348 94.5354 482.605 97.0333C480.356 97.7827 477.609 100.031 475.86 97.5329C474.361 95.5345 476.859 93.5362 478.108 91.7877C483.854 84.2939 489.349 76.5504 495.344 69.0567C501.339 61.5629 501.089 61.0633 493.595 55.0683C489.849 51.821 486.601 52.0708 482.854 54.8185C480.107 56.8169 477.109 58.8152 474.361 61.0633C470.615 64.0608 467.367 65.06 463.87 60.0642C460.373 55.0683 456.127 55.5679 451.88 59.8144C447.384 64.5604 442.888 69.0567 439.391 74.5521C443.137 75.0516 446.385 74.0525 449.882 73.5529Z" fill="#4EB4BC"/>
<path d="M431.649 93.5367C433.897 92.5376 435.895 92.7874 437.894 93.2869C438.643 93.5367 439.393 93.7865 440.142 94.2861C440.641 94.5359 441.391 94.7857 441.89 95.0355C442.39 95.2853 442.89 95.5351 443.139 95.7849C448.135 89.2903 453.131 82.7957 460.625 78.799C458.876 73.3036 454.63 72.3045 449.634 73.3036C446.387 74.053 443.139 74.8024 439.642 74.5526C438.643 75.8015 437.644 77.0505 436.395 78.2995C433.148 81.7965 430.15 85.5434 427.652 89.7899C427.902 92.2878 428.402 94.7857 431.649 93.5367Z" fill="#2CB1BB"/>
<path d="M310.749 113.767C311.498 113.518 312.497 113.518 313.497 113.018C325.986 107.273 333.979 97.0313 339.974 85.2911C340.974 83.2928 340.724 81.2944 338.975 79.7957C336.477 77.7973 333.73 78.0471 331.232 79.5459C320.491 86.2903 311.998 95.2827 306.003 106.274C303.505 111.02 305.503 113.518 310.749 113.767Z" fill="#F3F1E1"/>
<path d="M205.587 88.7897C203.339 87.5407 200.341 87.2909 198.343 88.5399C187.852 95.7838 178.609 104.527 172.614 116.017C170.366 120.263 173.364 121.762 177.11 122.262C177.86 122.012 178.609 122.012 179.359 121.762C192.598 116.267 201.09 106.275 206.586 93.5357C207.335 91.7872 207.335 89.7888 205.587 88.7897Z" fill="#F3F1E1"/>
<path d="M404.418 82.046C407.165 82.7954 410.163 82.2958 412.161 80.5473C415.159 78.0494 419.155 76.5506 420.154 71.8046C419.655 70.5556 418.906 69.3067 417.157 69.0569C413.66 68.5573 403.169 76.8004 403.418 80.2975C403.418 80.7971 403.918 81.7963 404.418 82.046Z" fill="#F3F1E1"/>
<path d="M103.919 91.7866C105.668 91.7866 107.416 91.7866 109.165 92.2862C111.912 92.7858 114.161 94.2845 115.659 97.5318C119.906 94.2845 124.402 91.0372 128.649 87.79C132.895 84.5427 137.141 81.0456 141.388 77.5485C147.882 72.3029 154.627 67.3071 161.371 62.561C168.116 57.815 175.11 53.0689 181.854 48.0731C182.104 43.3271 178.357 43.0773 175.36 42.5777C171.862 42.0781 168.365 42.0781 164.868 42.0781C161.621 42.8275 159.123 44.8258 156.375 46.8242C145.884 55.0673 135.143 63.3104 124.652 71.8033C119.656 75.8 113.911 79.2971 108.915 83.5435C105.917 86.0414 102.92 88.7891 100.672 91.7866C100.922 91.7866 101.421 91.7866 101.671 91.7866C102.42 91.7866 103.17 91.7866 103.919 91.7866Z" fill="#4EB4BC"/>
<path d="M214.328 74.5516C213.079 75.0512 211.83 74.8014 210.581 73.3026C208.583 71.3043 205.335 69.5558 201.838 68.5566C192.596 64.8097 182.355 66.8081 174.112 74.3018C170.115 77.7989 166.868 81.7955 162.871 85.2926C154.128 93.2859 149.132 102.778 150.381 115.018C150.881 116.017 151.38 117.016 151.63 118.015C151.63 118.765 151.88 119.514 151.88 120.263V120.513L152.38 122.262C153.878 128.007 156.876 134.252 163.37 138.498L163.62 138.748L166.868 140.497H167.117C167.367 140.497 167.617 140.746 167.867 140.746C167.867 140.746 176.11 145.742 194.594 130.755C194.594 130.755 195.843 130.755 197.842 131.754C200.589 134.252 203.587 135.501 206.584 135.751C207.334 136 207.584 136 207.584 136C207.584 136 210.331 137.749 216.326 135.001C222.321 132.253 232.812 128.007 232.812 128.007C232.812 128.007 238.058 126.508 243.803 128.007C246.051 128.756 248.549 130.005 251.047 131.754C252.796 133.003 254.794 133.752 256.792 134.002C257.542 134.252 257.792 134.252 257.792 134.252C257.792 134.252 261.039 136.5 274.028 129.756C281.272 126.009 287.767 126.009 292.263 126.758C294.011 127.258 295.76 127.757 297.508 128.007C298.008 128.257 298.258 128.257 298.258 128.257C298.258 128.257 307.5 131.504 318.991 127.757C318.991 127.757 328.732 126.009 340.473 127.258C342.971 127.507 345.219 127.507 347.217 127.258C348.216 127.258 349.465 127.258 350.464 127.258C352.213 126.758 353.961 125.759 355.71 124.76C355.71 124.51 355.71 124.51 355.96 124.26C357.458 123.261 358.458 122.512 358.707 122.262C359.457 121.762 367.7 116.517 372.446 113.769C372.946 113.519 373.445 113.269 374.194 113.269C376.443 113.519 378.691 115.268 380.939 118.265C382.438 120.263 384.186 121.512 386.184 122.012C387.433 122.512 388.932 123.011 391.18 123.011C396.676 123.261 404.669 120.763 404.669 120.763C404.669 120.763 409.665 120.014 416.659 115.018C416.659 115.018 418.657 112.77 421.155 113.019C421.905 113.269 422.654 113.769 423.653 114.268C425.402 115.517 427.15 116.517 428.899 117.016C429.398 117.266 429.898 117.266 430.398 117.516C434.144 118.515 437.891 116.766 437.891 116.766C437.891 116.766 440.389 115.767 442.637 113.019C444.636 110.272 446.134 108.273 446.134 108.273C446.134 108.273 449.132 104.527 449.881 105.026C450.131 105.026 450.131 105.026 450.381 105.276C451.38 106.025 452.879 107.524 454.627 110.022C457.125 113.269 460.123 115.018 463.12 115.767C464.119 116.267 465.868 117.016 470.864 116.766C472.862 116.766 474.611 116.517 476.109 116.267C476.859 116.267 477.608 116.267 478.607 116.267C478.857 116.017 479.107 115.767 479.606 115.517C482.354 114.768 484.353 114.019 485.102 113.519C486.351 112.77 496.342 106.775 496.342 106.775C496.342 106.775 508.083 97.7822 510.081 96.0337C512.079 94.2851 517.575 91.0378 517.325 84.5433C517.075 78.2985 513.079 76.0503 513.079 76.0503C513.079 76.0503 512.079 75.301 510.081 74.8014C509.082 74.5516 507.833 74.3018 506.334 74.3018C506.084 74.3018 505.835 74.3018 505.585 74.3018C505.085 74.052 504.835 73.3026 505.085 72.0537C505.085 72.0537 510.331 63.311 507.833 57.5658C505.335 51.8206 502.587 49.3227 495.843 46.0754C494.844 45.5758 493.845 45.326 492.596 45.0762C488.349 43.8272 483.853 44.5766 479.856 47.0745C474.611 50.5716 469.865 54.5683 464.119 50.3218C463.87 50.072 463.37 49.5724 463.12 49.0729C463.12 49.0729 462.87 49.0729 462.621 49.0729C462.371 48.8231 461.621 48.8231 461.122 48.8231C460.622 48.8231 459.873 48.5733 458.874 48.5733C450.381 47.0745 445.885 53.3193 440.889 58.5649C439.39 60.3135 438.141 61.3126 436.892 61.5624C436.143 61.8122 435.393 61.8122 434.644 61.5624C433.645 61.3126 432.396 60.5633 430.897 59.3143C430.398 59.0645 430.148 58.5649 429.898 58.3151C429.149 57.5658 428.399 56.3168 427.65 55.0679C427.65 55.0679 423.903 48.8231 418.158 48.5733C416.659 48.0737 414.661 48.0737 412.662 48.5733C411.913 48.8231 410.914 49.0729 409.915 48.8231C409.415 48.3235 409.165 47.8239 409.165 47.8239L410.664 45.0762L414.661 40.0804L430.647 25.0929C430.647 25.0929 435.643 19.8473 431.896 14.6016C428.149 9.35602 424.652 7.1079 424.652 7.1079C424.652 7.1079 420.156 3.61082 414.661 2.86144C407.167 1.61249 399.423 4.60998 392.929 11.8539C380.189 26.8414 367.2 41.5791 354.211 56.3168C353.462 57.316 352.463 58.3151 351.713 59.3143C347.467 61.8122 343.72 62.8114 341.222 61.3126C341.222 61.3126 337.975 57.5658 330.981 56.8164C320.489 54.8181 311.996 59.5641 305.002 66.8081C299.757 68.5566 294.511 68.8064 290.764 64.5599C288.266 61.5624 285.019 60.0637 281.772 59.5641C279.773 59.0645 277.525 58.5649 275.027 58.8147C264.786 59.5641 258.541 66.5583 252.296 73.0528C251.797 73.5524 251.547 73.8022 251.297 74.052C248.799 74.8014 246.051 74.3018 243.803 72.3035C243.304 71.8039 242.804 71.3043 242.554 70.8047C242.055 70.0553 241.555 69.5558 241.056 68.5566C241.056 68.5566 237.808 64.8097 233.312 64.0603C228.066 62.3118 223.071 64.8097 216.326 72.0537C215.577 73.8022 215.077 74.3018 214.328 74.5516ZM220.073 81.7955C221.822 79.7972 223.82 77.7989 225.569 75.8005C229.565 71.3043 233.312 73.8022 236.559 76.5499C240.306 79.7972 239.807 83.0445 236.809 86.7914C230.065 95.0345 223.57 103.527 217.076 112.02C216.076 113.269 214.078 114.768 215.327 116.517C216.826 118.765 219.324 117.266 220.823 116.517C231.064 111.521 241.056 106.025 246.301 94.5349C251.297 83.2943 260.29 75.301 270.781 69.0562C276.026 66.0587 280.273 66.5583 284.769 71.0545C295.76 81.7955 295.26 86.5416 281.522 94.0353C277.775 96.0337 273.778 97.7822 269.532 98.032C261.788 98.7814 259.29 104.527 257.292 110.272C255.793 114.518 258.041 117.766 262.538 116.267C274.528 112.77 286.518 108.773 292.513 96.5332C298.757 83.5441 307.75 73.5524 320.489 66.5583C327.733 62.5616 332.979 64.5599 338.474 69.8055C347.467 78.0487 347.717 77.7989 355.71 68.5566C356.209 68.057 356.709 67.3076 356.959 66.8081C357.958 65.3093 358.957 63.8106 360.206 62.8114L364.453 58.8147C373.945 47.0745 384.186 35.8339 394.428 24.8431C398.174 20.8464 401.921 16.8498 405.418 12.8531C406.168 11.8539 407.916 11.6041 409.915 11.6041C414.91 11.8539 421.905 14.1021 423.154 16.8498C424.403 19.5975 422.154 20.8464 420.656 22.3452C410.664 32.3368 400.423 42.3285 390.431 52.0704C387.683 54.5683 385.935 58.0654 383.687 60.8131C383.187 61.3126 382.687 61.8122 382.188 62.3118L378.191 66.5583C370.448 76.0503 362.454 85.7922 354.711 95.2843C351.713 99.0312 344.969 102.528 348.466 107.274C351.713 111.771 356.209 105.276 359.707 103.527C369.199 98.5316 377.692 93.2859 382.687 82.2951C387.184 72.3035 395.427 64.0603 405.668 58.5649C411.663 55.3176 415.91 55.3176 420.905 60.5633C431.647 71.5541 431.397 73.5524 417.908 82.0453C414.161 84.5433 409.915 86.7914 405.668 87.0412C399.174 87.291 396.426 91.0378 394.428 96.0337C393.428 98.7814 390.931 101.529 393.678 104.277C396.426 107.024 399.673 105.776 402.671 104.776C407.417 103.028 411.913 100.78 415.91 98.2818C420.156 95.5341 423.903 92.5366 427.65 89.2893C429.898 85.0428 433.145 81.296 436.393 77.7989C437.392 76.5499 438.391 75.301 439.64 74.052C443.137 68.5566 447.633 64.0603 452.129 59.3143C456.376 55.0679 460.622 54.5683 464.119 59.5641C467.616 64.5599 470.864 63.5608 474.611 60.5633C477.358 58.5649 480.356 56.5666 483.104 54.3185C486.85 51.5708 490.098 51.321 493.845 54.5683C501.338 60.5633 501.338 61.0629 495.593 68.5566C489.848 76.0503 484.103 83.5441 478.358 91.2876C477.109 93.0362 474.611 95.0345 476.109 97.0328C477.858 99.7805 480.606 97.2826 482.854 96.5332C490.348 94.0353 496.093 88.0403 503.586 85.0428C505.335 87.2909 503.087 88.2901 502.088 89.2893C494.094 96.0337 486.85 103.777 476.859 107.274C470.864 109.273 465.368 109.772 460.622 104.277C455.377 98.2818 455.626 92.7864 460.123 86.7914C462.371 83.5441 465.868 81.296 466.867 77.0495C465.119 75.8005 464.119 76.5499 463.12 77.5491C462.371 78.0487 461.871 78.5483 461.122 78.5483C453.628 82.5449 448.632 89.0395 443.637 95.5341C440.889 99.5307 438.391 103.527 435.643 107.274C433.395 110.272 431.397 110.522 428.649 107.274C423.154 100.28 420.905 100.28 414.411 105.776C411.913 107.774 409.415 110.022 406.667 111.521C395.677 117.766 388.932 116.517 381.938 105.776C378.191 100.03 374.944 100.53 370.697 104.277C364.203 109.772 356.959 114.268 349.215 117.516C343.47 120.014 337.725 121.013 333.478 114.019C330.981 110.022 327.983 110.022 324.236 113.019C321.488 115.268 318.741 117.266 315.743 119.014C306.251 124.01 301.755 123.011 296.759 113.519C293.762 107.774 291.513 107.774 286.518 111.521C280.772 116.017 274.777 120.014 268.283 123.261C259.29 127.757 253.295 126.258 247.55 118.015C243.554 112.27 240.056 111.021 234.311 116.017C229.815 119.764 224.569 122.512 219.074 125.009C209.582 129.755 206.085 129.756 199.34 122.262C196.343 118.765 193.845 119.014 191.347 121.762C188.35 125.259 184.353 127.258 180.356 129.506C173.362 133.253 167.367 130.755 163.121 124.01C156.626 113.769 156.626 104.277 164.37 95.2843C170.614 88.0403 177.109 81.296 185.602 76.5499C192.596 72.5533 200.839 74.5516 207.584 81.7955C213.329 88.2901 214.828 88.0403 220.073 81.7955Z" fill="#F3F1E1"/>
<path d="M377.942 67.3096L381.939 63.0631C382.438 62.5635 382.938 62.064 383.437 61.5644C385.686 58.8167 387.434 55.3196 390.182 52.8217C400.423 43.0798 410.415 33.0882 420.407 23.0965C421.905 21.5978 424.153 20.3488 422.904 17.6011C421.656 14.8534 414.911 12.6053 409.666 12.3555C407.667 12.3555 405.919 12.6053 405.169 13.6044C401.422 17.6011 397.925 21.5978 394.178 25.5944C383.937 36.5852 373.696 47.8259 364.203 59.566L359.957 63.5627L377.942 67.3096Z" fill="#6DB3BC"/>
</svg>
